<svg width="699" height="773" viewBox="0 0 699 773" fill="none" xmlns="http://www.w3.org/2000/svg">
<path d="M136.85 161.611C136.111 161.081 135.369 160.507 134.625 159.889C133.901 159.248 133.142 158.576 132.349 157.873C130.668 156.383 128.936 154.786 127.154 153.082C125.369 151.334 123.65 149.582 121.998 147.825C120.366 146.046 118.846 144.304 117.44 142.599C116.033 140.894 114.877 139.307 113.97 137.837C113.064 136.367 112.456 135.078 112.146 133.97C111.813 132.841 111.905 131.985 112.422 131.401C113.208 130.514 114.569 130.553 116.505 131.519C118.442 132.485 121.044 134.416 124.312 137.312C126.227 139.008 128.261 141.039 130.414 143.406C132.565 145.729 134.609 148.29 136.546 151.09C138.215 153.486 139.648 155.631 140.845 157.525C142.04 159.375 143.056 161.026 143.895 162.478C145.202 163.261 146.492 163.945 147.765 164.531C149.058 165.094 150.254 165.508 151.353 165.773C152.451 166.038 153.44 166.122 154.318 166.025C155.172 165.907 155.858 165.556 156.375 164.973C156.81 164.482 157.046 163.816 157.083 162.974C157.121 162.133 157.057 161.264 156.893 160.368C156.749 159.448 156.542 158.577 156.271 157.754C156.021 156.907 155.804 156.235 155.619 155.738L156.038 155.547C156.038 155.547 156.15 155.75 156.373 156.157C156.597 156.563 156.862 157.11 157.168 157.799C157.452 158.467 157.73 159.234 158.004 160.102C158.298 160.946 158.515 161.805 158.656 162.681C158.774 163.535 158.781 164.374 158.676 165.198C158.548 166.002 158.225 166.695 157.708 167.279C156.591 168.539 155.071 169.172 153.149 169.178C151.227 169.183 148.961 168.613 146.351 167.467C146.808 168.456 147.182 169.516 147.471 170.648C147.737 171.758 147.881 172.866 147.904 173.969C147.903 175.052 147.735 176.111 147.4 177.148C147.085 178.161 146.576 179.065 145.873 179.859C145.335 180.466 144.713 180.956 144.006 181.33C143.32 181.681 142.603 181.879 141.855 181.924C141.083 181.949 140.313 181.829 139.546 181.566C138.779 181.303 138.045 180.862 137.345 180.241C136.154 179.186 135.237 177.894 134.592 176.364C133.924 174.813 133.55 173.19 133.469 171.493C133.366 169.776 133.562 168.096 134.06 166.453C134.555 164.766 135.381 163.269 136.539 161.961L136.85 161.611ZM113.509 133.49C113.281 133.747 113.413 134.28 113.904 135.09C114.392 135.856 115.112 136.807 116.065 137.942C117.017 139.078 118.154 140.335 119.474 141.714C120.795 143.092 122.161 144.49 123.572 145.907C125.004 147.301 126.435 148.673 127.864 150.023C129.291 151.329 130.599 152.51 131.79 153.564C133.167 154.785 134.725 156.061 136.462 157.392C138.177 158.703 139.953 159.943 141.791 161.114C140.981 159.771 140.041 158.292 138.971 156.677C137.878 155.042 136.65 153.37 135.288 151.663C133.923 149.911 132.424 148.146 130.792 146.366C129.137 144.566 127.328 142.797 125.367 141.06C123.757 139.632 122.278 138.385 120.932 137.317C119.586 136.249 118.408 135.392 117.396 134.746C116.382 134.056 115.549 133.61 114.896 133.406C114.219 133.182 113.757 133.21 113.509 133.49ZM144.947 176.6C145.588 175.876 146.005 175.1 146.198 174.271C146.368 173.421 146.416 172.567 146.342 171.71C146.245 170.832 146.049 169.971 145.755 169.127C145.461 168.283 145.159 167.495 144.85 166.762C143.803 166.251 142.774 165.673 141.762 165.027C140.728 164.36 139.657 163.64 138.55 162.867C138.099 163.093 137.688 163.417 137.316 163.837C136.24 165.051 135.507 166.277 135.118 167.516C134.726 168.71 134.586 169.857 134.696 170.955C134.807 172.053 135.111 173.073 135.61 174.015C136.13 174.934 136.751 175.714 137.475 176.355C138.712 177.452 140.029 178.035 141.425 178.105C142.842 178.152 144.016 177.651 144.947 176.6ZM155.644 142.724C156.213 142.192 156.786 141.892 157.363 141.823C157.917 141.732 158.434 141.783 158.913 141.976C159.394 142.125 159.816 142.349 160.181 142.648C160.546 142.947 160.835 143.211 161.048 143.439C161.303 143.713 161.674 144.178 162.159 144.834C162.644 145.491 163.15 146.17 163.678 146.872C164.206 147.574 164.691 148.231 165.133 148.842C165.576 149.453 165.882 149.85 166.053 150.032C166.478 150.488 166.906 150.878 167.337 151.201C167.746 151.502 168.18 151.716 168.639 151.842C169.098 151.968 169.562 151.962 170.03 151.823C170.498 151.685 170.994 151.371 171.519 150.881C172.476 149.987 173.032 148.571 173.187 146.635C173.341 144.698 173.087 142.46 172.423 139.922L172.756 139.867C173.293 140.945 173.714 142.173 174.02 143.552C174.305 144.908 174.446 146.27 174.443 147.638C174.441 149.006 174.275 150.291 173.947 151.494C173.598 152.673 173.058 153.604 172.329 154.285C171.714 154.86 171.095 155.203 170.473 155.314C169.853 155.381 169.259 155.317 168.692 155.121C168.104 154.902 167.563 154.597 167.068 154.205C166.553 153.79 166.104 153.377 165.72 152.967C165.252 152.465 164.755 151.841 164.229 151.095C163.681 150.326 163.144 149.568 162.618 148.822C162.094 148.032 161.6 147.298 161.138 146.62C160.675 145.942 160.285 145.432 159.965 145.09C159.688 144.794 159.408 144.608 159.124 144.532C158.862 144.435 158.609 144.415 158.364 144.473C158.098 144.508 157.875 144.588 157.694 144.715C157.513 144.841 157.377 144.946 157.286 145.032C157.035 145.266 156.737 145.609 156.39 146.06C156.066 146.491 155.54 147.046 154.81 147.728C154.605 147.919 154.389 148.099 154.163 148.268C153.936 148.437 153.688 148.605 153.417 148.772C154.179 149.725 154.84 150.73 155.4 151.786C155.982 152.821 156.467 153.82 156.853 154.782C157.262 155.723 157.575 156.583 157.791 157.363C157.986 158.12 158.088 158.686 158.097 159.062C157.801 159.339 157.525 159.34 157.269 159.067C157.164 158.908 157.023 158.528 156.845 157.927C156.668 157.281 156.397 156.51 156.03 155.615C155.686 154.698 155.203 153.677 154.579 152.553C153.978 151.407 153.179 150.254 152.182 149.094C150.535 149.479 148.978 148.885 147.509 147.312C147.104 146.879 146.844 146.44 146.726 145.995C146.632 145.528 146.756 145.135 147.098 144.816C147.599 144.347 148.229 144.314 148.988 144.715C149.748 145.072 150.609 145.719 151.57 146.657C151.772 146.553 151.952 146.449 152.11 146.344C152.291 146.218 152.484 146.059 152.689 145.868C153.282 145.314 153.797 144.769 154.235 144.232C154.695 143.674 155.165 143.172 155.644 142.724ZM149.645 146.79C149.73 146.881 149.861 146.929 150.038 146.935C149.908 146.843 149.779 146.75 149.65 146.657C149.543 146.543 149.447 146.463 149.36 146.416C149.252 146.346 149.166 146.277 149.102 146.208C149.034 146.272 149.009 146.36 149.027 146.471C149.046 146.581 149.252 146.688 149.645 146.79ZM178.099 139.514C178.702 139.02 179.315 138.882 179.936 139.099C180.537 139.292 181.085 139.69 181.579 140.294C182.151 140.994 182.403 141.695 182.332 142.397C182.262 143.099 181.949 143.678 181.394 144.132C180.984 144.468 180.457 144.637 179.814 144.639C179.171 144.641 178.563 144.292 177.99 143.592C177.358 142.82 177.068 142.07 177.118 141.344C177.168 140.618 177.495 140.007 178.099 139.514ZM194.893 119.133C195.614 120.238 196.468 121.329 197.454 122.406C198.441 123.484 199.54 124.367 200.751 125.055C201.976 125.701 203.3 126.089 204.722 126.22C206.159 126.308 207.687 125.951 209.308 125.148C210.929 124.345 212.363 123.269 213.609 121.92C214.842 120.544 215.915 118.95 216.828 117.14C217.769 115.316 218.571 113.318 219.235 111.144C219.884 108.942 220.416 106.608 220.829 104.14C219.32 104.958 217.803 105.796 216.28 106.656C214.77 107.473 213.24 108.319 211.688 109.192C211.353 109.358 211.003 109.601 210.639 109.92C210.262 110.212 210.031 110.378 209.947 110.42C209.668 110.559 209.438 110.446 209.258 110.083C209.175 109.915 209.12 109.699 209.093 109.434C209.094 109.155 209.144 108.869 209.242 108.576C209.327 108.256 209.475 107.956 209.685 107.678C209.923 107.386 210.224 107.15 210.587 106.97C211.37 106.582 212.697 105.889 214.57 104.892C216.457 103.852 218.666 102.619 221.195 101.191C221.74 97.3013 222.075 93.2364 222.202 88.9963C222.329 84.7562 222.371 80.5925 222.33 76.5052C222.275 72.39 222.206 68.4561 222.122 64.7035C222.024 60.9229 222.015 57.5681 222.095 54.639C222.161 51.6821 222.365 49.2487 222.707 47.3388C223.049 45.429 223.653 44.2595 224.519 43.8302C225.05 43.567 225.559 43.541 226.047 43.752C226.548 43.9211 227.015 44.2646 227.445 44.7822C227.89 45.2581 228.313 45.8664 228.715 46.6072C229.131 47.3061 229.533 48.0469 229.92 48.8294C231.555 52.1273 233.014 55.4246 234.3 58.7212C235.599 61.976 236.836 65.2446 238.01 68.5268C239.198 71.7673 240.379 75.0287 241.553 78.311C242.741 81.5514 244.026 84.8132 245.409 88.0962C246.164 87.6526 246.905 87.2507 247.632 86.8906C248.358 86.5306 249.057 86.1843 249.728 85.852L251.53 84.9587C252.173 84.6402 252.746 84.3912 253.249 84.2116C253.766 83.9903 254.094 84.0194 254.232 84.2989C254.398 84.6342 254.411 85.0807 254.269 85.6381C254.142 86.1538 253.715 86.5916 252.988 86.9517C251.842 87.5893 250.724 88.1781 249.634 88.7182C248.544 89.2583 247.44 89.8053 246.322 90.3593C246.792 91.449 247.291 92.5249 247.817 93.5869C248.329 94.621 248.849 95.669 249.375 96.7311C249.818 97.6254 250.317 98.492 250.872 99.331C251.427 100.17 252.052 100.87 252.748 101.43C253.429 101.963 254.181 102.321 255.004 102.505C255.84 102.648 256.747 102.477 257.725 101.992C258.424 101.646 259.026 101.139 259.53 100.471C260.049 99.7615 260.477 98.9749 260.815 98.1113C261.139 97.2197 261.38 96.2999 261.537 95.3519C261.693 94.404 261.766 93.4975 261.756 92.6326L262.383 92.6349C262.408 93.5277 262.418 94.6018 262.414 95.8573C262.437 97.0988 262.342 98.3469 262.128 99.6016C261.914 100.856 261.506 102.033 260.902 103.133C260.34 104.247 259.472 105.095 258.298 105.677C256.202 106.715 254.291 106.653 252.566 105.489C250.854 104.283 249.181 102.031 247.547 98.7332C246.966 97.5594 246.384 96.3855 245.802 95.2117C245.235 93.9961 244.709 92.7597 244.225 91.5025C240.494 93.456 236.86 95.3958 233.324 97.322C229.802 99.2065 226.224 101.153 222.59 103.163C222.189 106.147 221.656 109.004 220.99 111.736C220.339 114.426 219.528 116.899 218.557 119.155C217.601 121.37 216.45 123.298 215.105 124.939C213.802 126.594 212.284 127.851 210.551 128.71C209.265 129.347 208.044 129.656 206.886 129.638C205.742 129.648 204.662 129.435 203.645 128.999C202.615 128.535 201.633 127.924 200.701 127.168C199.798 126.397 198.971 125.571 198.22 124.69C197.456 123.78 196.762 122.871 196.138 121.962C195.5 121.025 194.931 120.193 194.431 119.466L194.893 119.133ZM223.04 100.173C224.634 99.3134 226.283 98.4266 227.988 97.5121C229.679 96.5696 231.391 95.6342 233.124 94.7058C234.844 93.7495 236.556 92.8141 238.261 91.8996C239.952 90.9571 241.594 90.0563 243.188 89.1972C241.832 86.0398 240.484 82.7918 239.142 79.4531C237.815 76.0726 236.467 72.72 235.098 69.3952C233.757 66.0565 232.395 62.7805 231.012 59.5672C229.656 56.3401 228.259 53.2732 226.818 50.3666C226.721 50.171 226.569 49.8984 226.361 49.549C226.181 49.1856 225.994 48.8432 225.8 48.5217C225.605 48.2002 225.418 47.9275 225.238 47.7036C225.057 47.4798 224.925 47.3887 224.841 47.4302C224.45 47.6241 224.188 48.5368 224.057 50.1684C223.94 51.7582 223.89 53.8713 223.909 56.5078C223.913 59.1163 223.951 62.1434 224.023 65.5891C224.108 68.993 224.151 72.6269 224.151 76.4908C224.137 80.3268 224.06 84.2811 223.92 88.3538C223.766 92.3985 223.473 96.3381 223.04 100.173ZM267.871 97.4606C267.781 97.4862 267.624 97.4496 267.402 97.3507C267.209 97.2433 267.079 97.0696 267.01 96.8295C266.891 96.4095 266.87 95.9938 266.948 95.5827C267.047 95.1329 267.185 94.5912 267.362 93.9573L265.994 89.1417C265.755 88.3016 265.25 86.6942 264.478 84.3194C263.706 81.9446 262.715 78.627 261.505 74.3664C260.857 72.0861 260.274 69.6902 259.755 67.1787C259.236 64.6673 258.82 62.1752 258.507 59.7026C258.223 57.2215 258.079 54.8306 258.074 52.5298C258.069 50.2291 258.261 48.1643 258.649 46.3354C259.059 44.468 259.672 42.9159 260.488 41.6789C261.325 40.4034 262.449 39.5654 263.859 39.1648C264.399 39.0114 264.991 39.038 265.633 39.2446C266.267 39.4212 266.892 39.7949 267.508 40.3657C268.154 40.928 268.746 41.7001 269.284 42.682C269.853 43.6555 270.337 44.8473 270.738 46.2575C271.42 48.6578 271.859 51.1756 272.057 53.8108C272.254 56.446 272.293 59.0938 272.173 61.7543C272.075 64.3762 271.846 66.938 271.486 69.4395C271.119 71.9111 270.719 74.2134 270.287 76.3464C269.847 78.4493 269.418 80.306 269 81.9163C268.582 83.5266 268.25 84.7557 268.004 85.6037C268.123 86.2508 268.272 86.8894 268.451 87.5195C268.63 88.1496 268.792 88.7197 268.937 89.2297C269.324 88.0821 269.793 86.7653 270.344 85.2795C270.925 83.7851 271.587 82.3487 272.33 80.9702C273.073 79.5918 273.909 78.3656 274.836 77.2916C275.793 76.2091 276.841 75.5059 277.982 75.182C279.002 74.8922 279.747 74.8912 280.218 75.179C280.719 75.4582 281.067 75.9429 281.263 76.633C281.519 77.5331 281.518 78.4414 281.259 79.3579C281.001 80.2744 280.605 81.1649 280.073 82.0296C279.57 82.8857 278.975 83.7031 278.289 84.4818C277.632 85.252 276.999 85.9344 276.39 86.529C275.81 87.1151 275.319 87.6114 274.916 88.0178C274.512 88.4242 274.323 88.6724 274.349 88.7624C274.417 89.0024 274.762 89.245 275.383 89.4902C276.025 89.6968 276.727 89.8864 277.49 90.059C278.252 90.2315 278.942 90.3761 279.558 90.4927C280.175 90.6093 280.518 90.6741 280.586 90.6871C280.792 90.7259 280.998 90.7648 281.203 90.8037C281.4 90.8126 281.524 90.907 281.575 91.087C281.593 91.147 281.586 91.2948 281.556 91.5304C281.525 91.766 281.465 92.0101 281.374 92.2628C281.284 92.5154 281.159 92.7616 281.001 93.0013C280.833 93.211 280.614 93.3542 280.344 93.4309C279.834 93.5758 279.138 93.579 278.256 93.4405C277.365 93.2721 276.506 93.0458 275.68 92.7618C274.832 92.5163 274.087 92.1767 273.445 91.743C272.824 91.2708 272.45 90.8096 272.322 90.3596C272.28 90.2095 272.299 89.9932 272.381 89.7106C272.454 89.3979 272.635 89.1197 272.922 88.8759C273.004 88.8203 273.216 88.5979 273.559 88.2085C273.903 87.8192 274.304 87.3485 274.763 86.7965C275.253 86.236 275.74 85.6112 276.225 84.9221C276.74 84.2246 277.191 83.529 277.578 82.8355C277.986 82.1035 278.293 81.4163 278.5 80.774C278.707 80.1316 278.742 79.5704 278.605 79.0904C278.486 78.6703 278.249 78.3486 277.893 78.1253C277.56 77.8634 277.093 77.8177 276.493 77.9882C276.073 78.1075 275.657 78.3554 275.245 78.7318C274.863 79.0997 274.472 79.5511 274.073 80.086C273.695 80.5824 273.339 81.1539 273.004 81.8003C272.66 82.4167 272.34 83.0589 272.043 83.7268C271.789 84.3177 271.493 85.0991 271.153 86.0712C270.813 87.0432 270.492 88.026 270.191 89.0196C269.911 89.9746 269.663 90.8718 269.447 91.7112C269.253 92.5121 269.165 93.0561 269.181 93.3432C269.19 93.6002 269.204 93.9366 269.225 94.3522C269.267 94.7293 269.254 95.1384 269.184 95.5796C269.115 96.0208 268.984 96.4148 268.791 96.7615C268.597 97.1083 268.291 97.3413 267.871 97.4606ZM264.263 73.2909C264.511 74.1611 264.781 75.0569 265.076 75.9785C265.37 76.9001 265.649 77.826 265.913 78.7561C266.199 79.6477 266.476 80.5093 266.745 81.3409C267.013 82.1725 267.241 82.9183 267.429 83.5784C267.813 81.8481 268.253 79.6316 268.75 76.9288C269.247 74.2261 269.646 71.2919 269.946 68.1261C270.247 64.9604 270.344 61.7065 270.237 58.3645C270.131 55.0225 269.656 51.8663 268.812 48.8959C268.505 47.8157 268.156 46.8126 267.763 45.8866C267.392 44.922 266.969 44.1181 266.494 43.4747C266.019 42.8313 265.467 42.372 264.838 42.0968C264.2 41.7917 263.476 41.7542 262.666 41.9843C261.826 42.2229 261.187 42.8261 260.748 43.7937C260.31 44.7613 260.031 46.0076 259.913 47.5327C259.787 49.0278 259.808 50.7566 259.976 52.7191C260.175 54.6731 260.48 56.7751 260.892 59.0251C261.296 61.245 261.778 63.5722 262.34 66.0066C262.932 68.4325 263.573 70.8606 264.263 73.2909ZM288.233 85.5876C288.075 84.7921 287.866 83.498 287.606 81.7053C287.34 79.882 286.995 77.5814 286.571 74.8036C286.147 72.0258 285.617 68.792 284.98 65.1024C284.344 61.4128 283.573 57.2887 282.669 52.7301C282.226 50.4966 281.786 48.358 281.349 46.3142C280.936 44.2338 280.557 42.4011 280.21 40.8162C279.858 39.2008 279.57 37.9065 279.345 36.9336C279.145 35.9239 279.035 35.3732 279.017 35.2814C278.969 35.0367 278.957 34.8164 278.981 34.6207C279.037 34.419 279.172 34.2173 279.386 34.0158C279.551 33.8876 279.741 33.7227 279.956 33.5212C280.195 33.283 280.452 33.1366 280.727 33.082C281.064 33.0152 281.342 33.0554 281.562 33.2026C281.776 33.3191 281.971 33.5825 282.148 33.9926C282.349 34.366 282.581 35.0515 282.842 36.049C283.098 37.0159 283.401 38.3866 283.753 40.1611C284.13 41.899 284.594 44.16 285.146 46.9441C285.656 49.5141 286.123 52.188 286.547 54.9658C286.971 57.7436 287.355 60.4817 287.699 63.1798C288.074 65.8719 288.398 68.463 288.669 70.9531C288.971 73.4371 289.224 75.6764 289.429 77.6709C289.665 79.6593 289.852 81.3234 289.99 82.6633C290.123 83.9726 290.225 84.8108 290.298 85.1779C290.329 85.3309 290.365 85.5145 290.407 85.7286C290.45 85.9428 290.508 86.1539 290.581 86.362C290.648 86.5395 290.727 86.6987 290.819 86.8395C290.904 86.9498 291.008 86.9927 291.13 86.9685C291.436 86.9078 291.66 86.3545 291.803 85.3087C291.945 84.2629 292.112 82.8624 292.305 81.1071C292.435 80.0001 292.608 78.8687 292.824 77.7129C293.04 76.5571 293.292 75.5054 293.581 74.5577C293.895 73.5733 294.242 72.7572 294.622 72.1094C295.033 71.4555 295.483 71.08 295.973 70.9829C296.34 70.9101 296.667 70.9565 296.954 71.1221C297.272 71.2817 297.556 71.5115 297.806 71.8116C298.051 72.0812 298.255 72.3904 298.42 72.7393C298.584 73.0883 298.731 73.4249 298.859 73.7493C298.962 74.1104 299.117 74.652 299.324 75.3742C299.531 76.0963 299.759 76.9255 300.008 77.8618C300.258 78.7981 300.516 79.7803 300.784 80.8084C301.082 81.8305 301.371 82.8066 301.651 83.7368C302.144 85.4198 302.802 86.577 303.627 87.2083C304.452 87.8397 305.4 88.0491 306.471 87.8367C306.899 87.7518 307.229 87.6544 307.462 87.5447C307.695 87.4349 307.918 87.3588 308.132 87.3163C308.285 87.286 308.346 87.4329 308.315 87.757C308.278 87.8916 308.061 88.1573 307.662 88.5543C307.258 88.9207 306.475 89.2192 305.312 89.4498C304.333 89.644 303.477 89.6549 302.743 89.4825C302.033 89.2734 301.413 88.8717 300.882 88.2775C300.375 87.6467 299.906 86.8018 299.473 85.7429C299.065 84.6473 298.675 83.3254 298.305 81.7772C298.067 80.902 297.824 79.9963 297.575 79.06C297.35 78.087 297.098 77.215 296.817 76.4438C296.568 75.6665 296.303 75.0513 296.022 74.5982C295.735 74.1145 295.424 73.906 295.087 73.9728C294.812 74.0274 294.57 74.4094 294.36 75.1186C294.145 75.7973 293.954 76.5983 293.788 77.5217C293.646 78.4085 293.522 79.3075 293.416 80.2188C293.305 81.0995 293.218 81.7845 293.156 82.2737C293.107 82.6651 293.045 83.3135 292.97 84.2187C292.895 85.1239 292.777 86.0535 292.617 87.0075C292.456 87.9615 292.244 88.8145 291.98 89.5665C291.715 90.3185 291.369 90.737 290.941 90.8219C290.574 90.8948 290.244 90.7535 289.95 90.3983C289.651 90.0124 289.383 89.541 289.145 88.984C288.932 88.3903 288.749 87.7905 288.598 87.1847C288.439 86.5483 288.318 86.0159 288.233 85.5876ZM308.212 69.2732C308.459 69.24 308.701 69.2862 308.938 69.4117C309.202 69.5022 309.422 69.6143 309.597 69.7481C309.803 69.8778 309.965 70.0292 310.083 70.2022C310.227 70.3402 310.302 70.4246 310.306 70.4556C310.31 70.4865 310.286 70.6627 310.235 70.9843C310.211 71.2708 310.182 71.7624 310.15 72.4591C310.148 73.1517 310.176 74.0607 310.233 75.186C310.316 76.2763 310.467 77.6407 310.687 79.2791C310.982 81.474 311.45 82.969 312.092 83.7641C312.764 84.555 313.487 84.8986 314.26 84.7949C315.033 84.6912 315.759 84.3577 316.439 83.7945C317.149 83.2271 317.795 82.5268 318.375 81.6936C318.956 80.8604 319.478 79.9406 319.941 78.9344C320.43 77.8931 320.843 76.8622 321.178 75.8416L321.481 75.9898C321.399 76.3155 321.278 76.8196 321.117 77.502C320.953 78.1534 320.735 78.875 320.464 79.6667C320.192 80.4584 319.848 81.2914 319.43 82.1657C319.039 83.0049 318.547 83.7948 317.954 84.5352C317.388 85.2406 316.732 85.8636 315.986 86.4043C315.267 86.9099 314.444 87.2249 313.517 87.3493C312.868 87.4364 312.248 87.3937 311.659 87.221C311.1 87.0442 310.56 86.6603 310.041 86.0691C309.547 85.4429 309.098 84.5591 308.693 83.4175C308.319 82.2718 308.008 80.7716 307.759 78.9167C307.631 77.9584 307.525 76.9341 307.441 75.8438C307.385 74.7184 307.356 73.6837 307.355 72.7397C307.381 71.7607 307.461 70.9475 307.594 70.3001C307.728 69.6528 307.934 69.3105 308.212 69.2732ZM307.782 57.6238C308.554 57.5201 309.148 57.7237 309.563 58.2345C309.974 58.7144 310.231 59.3408 310.334 60.1136C310.455 61.0101 310.301 61.7389 309.872 62.2999C309.444 62.8609 308.875 63.1891 308.164 63.2845C307.638 63.355 307.101 63.2225 306.552 62.887C306.004 62.5515 305.669 61.9355 305.549 61.0389C305.416 60.0497 305.562 59.2591 305.986 58.6672C306.41 58.0753 307.009 57.7275 307.782 57.6238ZM337.667 75.7143C337.623 75.937 337.422 76.548 337.066 77.5473C336.738 78.5129 336.246 79.5703 335.588 80.7193C334.96 81.8347 334.168 82.8696 333.213 83.8239C332.287 84.7445 331.187 85.2569 329.912 85.3611C328.264 85.4958 326.721 84.996 325.283 83.8617C323.842 82.6964 322.546 81.0028 321.394 78.7811C320.271 76.5258 319.31 73.7721 318.513 70.52C317.746 67.2654 317.196 63.6018 316.863 59.5294C316.68 57.2911 316.566 54.9376 316.521 52.469C316.473 49.9693 316.522 47.5086 316.669 45.0869C316.815 42.6653 317.048 40.346 317.368 38.1292C317.718 35.9099 318.184 33.9472 318.764 32.2412C319.344 30.5351 320.062 29.1621 320.915 28.1222C321.798 27.0486 322.814 26.4648 323.964 26.3708C325.674 26.2311 327.003 27.1709 327.95 29.1902C328.929 31.207 329.596 34.3916 329.952 38.7438C330.16 41.293 330.207 44.1683 330.093 47.3697C329.977 50.54 329.602 53.8096 328.97 57.1786C328.129 61.4409 327.177 65.102 326.112 68.162C325.077 71.1884 324.179 73.6089 323.42 75.4235C323.861 76.6079 324.324 77.6811 324.81 78.6428C325.326 79.6021 325.879 80.4331 326.469 81.136C327.056 81.8078 327.676 82.3204 328.331 82.6737C328.986 83.0271 329.686 83.1732 330.432 83.1123C331.365 83.036 332.213 82.6851 332.975 82.0595C333.738 81.4339 334.399 80.7226 334.96 79.9257C335.552 79.1262 336.049 78.3188 336.452 77.5035C336.855 76.6882 337.162 76.0373 337.372 75.5506L337.667 75.7143ZM319.441 56.0327C319.548 57.3384 319.694 58.7503 319.881 60.2685C320.096 61.7531 320.345 63.2662 320.628 64.8079C320.91 66.3496 321.224 67.8887 321.568 69.4253C321.944 70.9593 322.361 72.4274 322.82 73.8295C323.361 72.4083 323.979 70.5896 324.674 68.3734C325.401 66.1547 326.059 63.6756 326.648 60.936C327.267 58.1628 327.727 55.1834 328.03 51.9978C328.364 48.8097 328.394 45.5369 328.12 42.1795C327.947 40.0655 327.696 38.1457 327.368 36.4201C327.067 34.6608 326.695 33.1734 326.252 31.9578C325.806 30.7112 325.29 29.7675 324.706 29.1268C324.15 28.4524 323.53 28.1432 322.846 28.1991C322.194 28.2524 321.641 28.767 321.189 29.7428C320.734 30.6876 320.35 31.9238 320.037 33.4516C319.754 34.9768 319.537 36.7158 319.383 38.6687C319.23 40.6215 319.127 42.6171 319.075 44.6556C319.053 46.6915 319.077 48.7081 319.147 50.7053C319.213 52.6715 319.311 54.4473 319.441 56.0327ZM353.026 69.7934C352.745 69.7946 352.48 69.6398 352.229 69.329C352.009 68.9869 351.711 68.6295 351.335 68.2569C350.959 67.8843 350.474 67.5433 349.88 67.234C349.317 66.8934 348.568 66.7252 347.632 66.7293C346.322 66.7351 345.107 67.0836 343.987 67.7748C342.867 68.4348 341.904 69.2812 341.098 70.3141C340.291 71.3158 339.657 72.4259 339.194 73.6444C338.763 74.8316 338.55 75.9555 338.554 77.016C338.562 78.6691 338.989 80.024 339.835 81.0808C340.682 82.1375 341.808 82.6628 343.211 82.6566C344.303 82.6517 345.253 82.4448 346.062 82.0357C346.903 81.5953 347.602 81.0307 348.16 80.342C347.969 79.5007 347.871 78.4562 347.866 77.2086C347.86 75.8674 347.948 74.7753 348.132 73.9323C348.346 73.0892 348.593 72.4331 348.872 71.964C349.182 71.4947 349.492 71.1815 349.803 71.0241C350.114 70.8356 350.379 70.7408 350.597 70.7399C350.847 70.7388 351.128 70.9091 351.442 71.2508C351.787 71.5924 351.961 72.1998 351.965 73.0732C351.969 74.1648 351.772 75.3198 351.372 76.538C351.003 77.725 350.478 78.8658 349.796 79.9605C350.175 80.9257 350.755 81.625 351.537 82.0582C352.318 82.4914 353.208 82.7058 354.206 82.7014C355.08 82.6975 355.89 82.5068 356.637 82.1292C357.415 81.7202 358.13 81.1868 358.782 80.5289C359.465 79.8708 360.101 79.1194 360.69 78.2746C361.279 77.3987 361.821 76.5073 362.316 75.6006L362.597 75.7865C362.228 76.9734 361.734 78.1296 361.116 79.2553C360.497 80.3809 359.784 81.3822 358.977 82.2591C358.17 83.1361 357.284 83.8418 356.319 84.3763C355.386 84.8795 354.404 85.1334 353.375 85.138C352.595 85.1415 351.736 84.8957 350.798 84.4008C349.892 83.8746 349.139 82.9422 348.54 81.6036C347.578 82.762 346.475 83.7338 345.231 84.5191C343.987 85.2732 342.647 85.6534 341.213 85.6598C340.402 85.6634 339.668 85.4795 339.011 85.1081C338.355 84.7367 337.791 84.2402 337.32 83.6184C336.881 82.9965 336.534 82.2651 336.281 81.424C336.028 80.583 335.899 79.6946 335.895 78.7589C335.888 77.1681 336.224 75.5759 336.903 73.9821C337.614 72.3882 338.543 70.9493 339.691 69.6653C340.871 68.3813 342.208 67.346 343.701 66.5596C345.226 65.7419 346.815 65.3293 348.468 65.322C349.684 65.3166 350.699 65.4525 351.511 65.7296C352.354 65.9754 353.026 66.2843 353.527 66.6564C354.028 66.9973 354.388 67.3544 354.608 67.7277C354.828 68.101 354.938 68.3969 354.939 68.6152C354.941 69.0519 354.709 69.3648 354.242 69.554C353.806 69.7119 353.4 69.7917 353.026 69.7934ZM349.124 76.0334C349.128 77.0626 349.226 77.9512 349.416 78.6989C349.88 77.8235 350.219 76.933 350.434 76.0275C350.648 75.0909 350.754 74.295 350.751 73.64C350.747 72.8602 350.605 72.471 350.324 72.4722C350.044 72.4734 349.765 72.8178 349.487 73.5052C349.24 74.1925 349.119 75.0352 349.124 76.0334ZM379.058 91.9746C379.045 92.9539 379.152 93.9701 379.38 95.0231C379.638 96.0815 380.051 97.072 380.618 97.9944C381.179 98.9475 381.937 99.7766 382.89 100.482C383.874 101.192 385.088 101.673 386.532 101.926C388.744 102.313 390.706 101.959 392.417 100.865C394.159 99.7765 395.711 98.148 397.071 95.9794C398.463 93.8163 399.707 91.2314 400.802 88.2249C401.903 85.1877 402.934 81.9166 403.896 78.4116C402.689 78.6122 401.434 78.7253 400.132 78.7508C398.829 78.7763 397.486 78.6682 396.104 78.4264C393.523 77.9751 391.188 77.2027 389.099 76.1092C387.011 75.0157 385.288 73.6379 383.933 71.9759C382.577 70.3139 381.612 68.4038 381.04 66.2455C380.503 64.0618 380.464 61.6642 380.92 59.0526C381.436 56.103 382.377 53.5285 383.743 51.3293C385.115 49.0993 386.751 47.1688 388.651 45.5379C390.587 43.8816 392.713 42.4961 395.03 41.3812C397.382 40.2411 399.785 39.2679 402.237 38.4619C404.69 37.6558 407.118 36.988 409.522 36.4585C411.957 35.9343 414.227 35.4447 416.333 34.9897C417.775 32.3603 419.393 30.3477 421.189 28.9518C422.984 27.5559 425.081 27.0675 427.477 27.4866C427.723 27.5296 428.009 27.6113 428.337 27.7319C428.664 27.8524 428.962 28.0471 429.232 28.3159C429.538 28.5594 429.763 28.8996 429.908 29.3366C430.09 29.7483 430.127 30.2614 430.019 30.8759C429.842 31.8898 429.392 32.7452 428.668 33.4419C427.945 34.1387 427.017 34.7364 425.885 35.2351C424.758 35.703 423.452 36.1079 421.968 36.4499C420.483 36.7919 418.893 37.0998 417.199 37.3734C416.39 39.8284 415.621 42.5914 414.894 45.6624C414.167 48.7333 413.429 51.9606 412.679 55.3442C411.965 58.7025 411.204 62.1475 410.397 65.6794C409.589 69.2112 408.734 72.6555 407.83 76.0123C409.916 75.4905 411.704 74.774 413.193 73.8628C414.682 72.9516 416.048 72.1138 417.29 71.3494L417.822 72.1075C417.389 72.4117 416.832 72.7893 416.152 73.2402C415.502 73.6966 414.721 74.1775 413.809 74.6831C412.929 75.194 411.935 75.7168 410.828 76.2515C409.757 76.7609 408.602 77.2081 407.364 77.5931C406.235 81.5121 404.975 85.1865 403.584 88.6163C402.228 92.0207 400.656 94.9439 398.868 97.386C397.11 99.8334 395.111 101.669 392.87 102.892C390.63 104.115 388.081 104.477 385.224 103.977C383.902 103.746 382.622 103.284 381.381 102.593C380.14 101.901 379.073 101.033 378.179 99.9902C377.279 98.978 376.599 97.7983 376.138 96.4511C375.702 95.14 375.616 93.7317 375.879 92.2261C375.944 91.8574 376.095 91.5356 376.333 91.2606C376.566 91.0163 376.839 90.8108 377.153 90.6441C377.493 90.5134 377.842 90.4162 378.202 90.3524C378.592 90.294 378.971 90.297 379.34 90.3615C379.586 90.4045 379.685 90.5642 379.636 90.8408C379.609 90.9944 379.518 91.1526 379.363 91.3155C379.203 91.5091 379.101 91.7288 379.058 91.9746ZM397.683 76.1853C400.141 76.6151 402.383 76.7381 404.41 76.5542C405.273 73.2536 406.092 69.8346 406.869 66.2974C407.677 62.7656 408.489 59.2978 409.306 55.8943C410.153 52.496 411.038 49.2468 411.96 46.1467C412.887 43.0157 413.905 40.1855 415.012 37.656C412.964 37.9627 410.846 38.3048 408.658 38.6823C406.476 39.029 404.321 39.4913 402.194 40.0691C400.071 40.6163 398.017 41.3179 396.031 42.1738C394.075 43.0351 392.303 44.1183 390.713 45.4236C389.123 46.7288 387.77 48.3128 386.652 50.1756C385.54 52.0077 384.764 54.1834 384.323 56.7029C383.904 59.0994 383.787 61.2163 383.973 63.0536C384.158 64.8909 384.558 66.4966 385.173 67.8706C385.818 69.2501 386.609 70.4332 387.544 71.4201C388.516 72.3817 389.564 73.1823 390.687 73.822C391.84 74.467 393.018 74.9738 394.221 75.3423C395.423 75.7109 396.577 75.9918 397.683 76.1853ZM426.084 29.4754C425.378 29.3518 424.665 29.3538 423.946 29.4814C423.232 29.5783 422.525 29.8188 421.825 30.203C421.155 30.5925 420.505 31.1437 419.873 31.8566C419.278 32.5441 418.743 33.4321 418.268 34.5206C419.485 34.2585 420.608 33.9956 421.635 33.732C422.694 33.4738 423.599 33.1887 424.35 32.8768C425.132 32.5702 425.745 32.2341 426.188 31.8684C426.663 31.5081 426.941 31.0975 427.021 30.6367C427.054 30.4523 426.996 30.2365 426.85 29.9892C426.708 29.7111 426.453 29.5399 426.084 29.4754ZM429.817 88.5058C429.88 88.2965 429.955 88.0424 430.044 87.7434C430.163 87.4533 430.267 87.1588 430.356 86.8598C430.444 86.5608 430.52 86.3067 430.582 86.0974C430.683 85.8671 430.747 85.7071 430.774 85.6174C430.836 85.4081 430.831 85.2602 430.759 85.1738C430.717 85.0962 430.593 85.2384 430.388 85.6004C430.293 85.7022 430.071 86.0105 429.723 86.5253C429.375 87.04 428.916 87.6521 428.347 88.3616C427.787 89.0411 427.13 89.7732 426.376 90.5579C425.661 91.3215 424.874 91.9986 424.015 92.5893C423.165 93.1501 422.276 93.5691 421.347 93.8463C420.419 94.1235 419.491 94.1243 418.565 93.8488C417.159 93.431 416.269 92.7596 415.893 91.8343C415.556 90.8881 415.614 89.6526 416.068 88.1278C416.201 87.6794 416.437 87.0499 416.775 86.2394C417.123 85.399 417.49 84.5481 417.876 83.6868C418.271 82.7955 418.633 81.9595 418.963 81.179C419.302 80.3685 419.538 79.739 419.671 79.2905C420.053 78.0049 419.915 77.2643 419.258 77.0688C419.108 77.0244 418.969 76.9993 418.841 76.9937C418.712 76.988 418.618 76.9763 418.558 76.9585C418.319 76.8874 418.235 76.7323 418.306 76.4931C418.333 76.4034 418.497 76.2895 418.798 76.1513C419.138 75.9921 419.727 76.0369 420.564 76.2858C421.521 76.5702 422.072 77.1245 422.218 77.9487C422.393 78.7818 422.338 79.6767 422.054 80.6335C421.929 81.052 421.707 81.6367 421.386 82.3874C421.104 83.117 420.794 83.8871 420.455 84.6976C420.117 85.5081 419.787 86.2886 419.466 87.0393C419.184 87.769 418.99 88.3132 418.883 88.672C418.546 89.8081 418.485 90.6687 418.701 91.2537C418.957 91.8177 419.413 92.1975 420.071 92.393C420.699 92.5797 421.383 92.5227 422.123 92.2221C422.902 91.9005 423.648 91.4714 424.361 90.9349C425.112 90.3773 425.793 89.7826 426.404 89.1507C427.015 88.5188 427.516 87.9842 427.906 87.5471C428.341 86.9604 428.763 86.3051 429.174 85.5811C429.584 84.857 429.98 84.1286 430.36 83.3957C430.78 82.6418 431.156 81.9238 431.489 81.2418C431.822 80.5598 432.128 79.9675 432.407 79.4649C432.547 79.2136 432.885 79.1186 433.42 79.18C433.963 79.2115 434.489 79.3028 434.998 79.4539C435.267 79.5339 435.375 79.6636 435.321 79.843C435.099 80.5905 434.782 81.6025 434.37 82.8793C433.958 84.156 433.552 85.4671 433.152 86.8125C432.156 90.161 431.631 92.6405 431.575 94.251C431.558 95.8404 432.148 96.8129 433.343 97.1684C433.613 97.2484 433.846 97.2852 434.043 97.2787C434.27 97.2811 434.458 97.3046 434.608 97.349C434.727 97.3846 434.769 97.4621 434.734 97.5817C434.76 97.492 434.756 97.507 434.72 97.6266C434.685 97.7462 434.561 97.8884 434.349 98.0532C434.177 98.1971 433.869 98.3009 433.427 98.3647C433.024 98.4076 432.449 98.3179 431.701 98.0957C430.894 97.8557 430.261 97.5212 429.803 97.0921C429.384 96.642 429.107 96.0392 428.974 95.2837C428.841 94.5282 428.84 93.6005 428.971 92.5008C429.142 91.38 429.424 90.0484 429.817 88.5058ZM446.744 82.2102C446.889 82.2672 446.959 82.4289 446.955 82.6954C446.951 82.9618 446.901 83.2604 446.805 83.5912C446.737 83.9334 446.63 84.2932 446.481 84.6706C446.345 85.019 446.219 85.3384 446.105 85.6287C445.809 86.3836 445.472 87.1561 445.095 87.9463C444.758 88.7188 444.413 89.4711 444.058 90.2032C443.744 90.9176 443.447 91.5885 443.167 92.2159C442.899 92.8142 442.685 93.3166 442.525 93.7231C442.229 94.4779 442.019 95.0991 441.895 95.5864C441.782 96.0447 441.841 96.3194 442.074 96.4106C442.219 96.4676 442.482 96.353 442.862 96.0667C443.242 95.7805 443.666 95.4273 444.132 95.0073C444.639 94.5697 445.143 94.0973 445.644 93.5901C446.144 93.083 446.602 92.6428 447.017 92.2694C447.546 91.7737 448.128 91.2313 448.761 90.6422C449.435 90.0355 450.101 89.4926 450.758 89.0134C451.426 88.5052 452.064 88.1188 452.671 87.8543C453.306 87.6012 453.871 87.5715 454.364 87.7653C454.684 87.8906 454.925 88.086 455.089 88.3514C455.282 88.6282 455.409 88.946 455.469 89.3047C455.54 89.6344 455.557 89.976 455.519 90.3296C455.521 90.6655 455.5 90.9755 455.455 91.2596C455.28 91.9616 454.951 93.0555 454.468 94.5414C454.026 96.0097 453.573 97.5909 453.109 99.2852C452.616 100.968 452.54 102.312 452.883 103.318C453.236 104.295 453.921 104.982 454.938 105.381C455.344 105.541 455.675 105.637 455.93 105.67C456.214 105.715 456.443 105.771 456.617 105.84C456.762 105.897 456.734 106.053 456.533 106.309C456.482 106.356 456.375 106.415 456.213 106.485C456.092 106.538 455.892 106.577 455.614 106.602C455.336 106.627 454.977 106.603 454.537 106.531C454.125 106.47 453.643 106.331 453.092 106.114C452.163 105.75 451.45 105.302 450.954 104.773C450.47 104.214 450.17 103.527 450.055 102.711C449.94 101.895 450 100.93 450.236 99.8162C450.484 98.6736 450.869 97.3505 451.392 95.847C451.608 95.1274 451.812 94.4368 452.005 93.7753C452.238 93.0961 452.393 92.4869 452.471 91.9477C452.589 91.3909 452.618 90.9332 452.558 90.5744C452.509 90.1867 452.325 89.9301 452.005 89.8047C451.744 89.7021 451.322 89.8381 450.739 90.2125C450.186 90.5983 449.592 91.0858 448.959 91.6748C448.337 92.2349 447.718 92.8296 447.103 93.4591C446.516 94.1 446.035 94.5984 445.661 94.9541C444.487 96.0679 443.511 96.9748 442.733 97.6749C441.985 98.3863 441.204 99.0516 440.392 99.6708C440.155 99.8461 439.921 99.9721 439.69 100.049C439.488 100.137 439.271 100.136 439.039 100.044C438.69 99.9076 438.528 99.509 438.553 98.8485C438.578 98.1881 438.68 97.4576 438.86 96.6571C439.07 95.868 439.308 95.0904 439.575 94.3241C439.854 93.5288 440.073 92.9279 440.233 92.5214C440.415 92.0569 440.637 91.4907 440.9 90.8229C441.191 90.1665 441.476 89.5247 441.756 88.8973C442.036 88.27 442.278 87.695 442.484 87.1724C442.718 86.6612 442.869 86.3185 442.937 86.1443C443.006 85.9701 443.082 85.7321 443.167 85.4304C443.293 85.111 443.412 84.8061 443.526 84.5158C443.652 84.1964 443.746 83.9149 443.808 83.6712C443.91 83.4099 443.979 83.2357 444.013 83.1486C444.104 82.9164 444.236 82.7504 444.409 82.6509C444.623 82.5336 444.819 82.46 444.999 82.4299C445.178 82.3998 445.467 82.3458 445.867 82.2679C446.277 82.161 446.57 82.1418 446.744 82.2102ZM465.137 109.519C465.81 109.848 466.537 110.03 467.319 110.064C468.114 110.071 468.901 109.917 469.679 109.603C470.471 109.261 471.212 108.738 471.903 108.034C472.622 107.344 473.256 106.439 473.803 105.318C474.255 104.393 474.568 103.469 474.741 102.547C474.927 101.597 474.947 100.704 474.8 99.868C474.68 99.0461 474.36 98.2818 473.837 97.5752C473.342 96.8822 472.633 96.3098 471.708 95.858C471.063 95.5431 470.357 95.3543 469.589 95.2916C468.835 95.2009 468.076 95.2985 467.311 95.5845C466.56 95.8425 465.832 96.3026 465.127 96.9647C464.435 97.5988 463.815 98.4764 463.268 99.5974C462.83 100.494 462.51 101.432 462.31 102.41C462.124 103.36 462.069 104.289 462.147 105.195C462.253 106.114 462.54 106.949 463.007 107.698C463.503 108.46 464.213 109.068 465.137 109.519ZM462.619 110.944C460.769 110.041 459.55 108.699 458.962 106.919C458.387 105.111 458.668 103.043 459.805 100.717C460.571 99.1479 461.571 97.8483 462.803 96.8187C464.048 95.761 465.367 94.9817 466.757 94.4806C468.189 93.9653 469.61 93.7221 471.019 93.7509C472.428 93.7798 473.679 94.0613 474.772 94.5953C476.538 95.4579 477.659 96.7519 478.135 98.4772C478.611 100.203 478.274 102.242 477.124 104.596C476.357 106.166 475.372 107.472 474.168 108.516C472.992 109.573 471.716 110.373 470.34 110.915C469.005 111.444 467.655 111.721 466.288 111.748C464.935 111.746 463.712 111.478 462.619 110.944ZM483.973 119.6C484.617 119.982 485.327 120.222 486.103 120.32C486.895 120.392 487.692 120.302 488.493 120.052C489.31 119.776 490.092 119.315 490.838 118.67C491.61 118.04 492.315 117.189 492.952 116.116C493.478 115.231 493.864 114.336 494.111 113.431C494.374 112.499 494.467 111.61 494.388 110.766C494.336 109.937 494.078 109.149 493.615 108.402C493.178 107.671 492.517 107.043 491.632 106.518C491.015 106.151 490.327 105.906 489.566 105.781C488.822 105.629 488.057 105.665 487.272 105.888C486.503 106.084 485.74 106.483 484.983 107.086C484.242 107.662 483.553 108.486 482.916 109.559C482.406 110.417 482.012 111.326 481.733 112.284C481.47 113.216 481.34 114.137 481.345 115.047C481.376 115.972 481.593 116.827 481.998 117.611C482.43 118.412 483.088 119.074 483.973 119.6ZM481.347 120.816C479.577 119.765 478.471 118.328 478.029 116.506C477.604 114.657 478.052 112.62 479.373 110.394C480.265 108.892 481.367 107.678 482.678 106.752C484.006 105.799 485.383 105.129 486.809 104.743C488.279 104.345 489.714 104.218 491.116 104.362C492.519 104.505 493.743 104.887 494.789 105.508C496.478 106.511 497.49 107.892 497.825 109.65C498.159 111.409 497.658 113.414 496.32 115.667C495.428 117.169 494.34 118.391 493.055 119.333C491.797 120.291 490.46 120.985 489.045 121.414C487.672 121.832 486.303 121.999 484.939 121.914C483.59 121.803 482.393 121.437 481.347 120.816ZM495.469 123.27C497.3 122.489 499.059 121.621 500.746 120.664C502.45 119.682 504.013 118.658 505.433 117.593C505.421 116.295 505.508 115.046 505.694 113.847C505.923 112.64 506.375 111.549 507.05 110.575C507.707 109.626 508.391 108.829 509.104 108.184C509.816 107.539 510.512 107.054 511.193 106.728C511.873 106.403 512.504 106.232 513.084 106.217C513.681 106.175 514.185 106.297 514.596 106.581C515.16 106.971 515.413 107.564 515.356 108.359C515.324 109.172 514.981 109.996 514.326 110.833C513.564 111.823 512.66 112.828 511.612 113.848C510.59 114.885 509.448 115.877 508.185 116.824C508.29 117.769 508.407 118.723 508.537 119.686C508.71 120.64 508.802 121.576 508.812 122.494C508.847 123.429 508.757 124.353 508.542 125.266C508.371 126.172 508.001 127.035 507.432 127.855C506.651 128.984 505.714 129.871 504.621 130.518C503.554 131.183 502.485 131.657 501.416 131.941C500.347 132.225 499.358 132.337 498.451 132.278C497.544 132.219 496.859 132.029 496.398 131.71C495.603 131.159 495.129 130.528 494.977 129.816C494.851 129.121 494.957 128.531 495.294 128.043C495.561 127.659 495.891 127.318 496.286 127.023C496.68 126.727 497.061 126.478 497.428 126.277C497.838 126.068 498.191 125.914 498.487 125.816C498.809 125.735 499.008 125.721 499.085 125.774C499.213 125.863 499.255 125.968 499.209 126.088C499.207 126.2 499.18 126.295 499.126 126.372C499.038 126.5 498.901 126.671 498.715 126.884C498.53 127.097 498.384 127.28 498.277 127.434C497.975 127.87 497.868 128.327 497.954 128.804C498.067 129.299 498.456 129.778 499.123 130.239C499.405 130.435 499.77 130.593 500.218 130.713C500.666 130.833 501.154 130.868 501.683 130.817C502.211 130.766 502.72 130.606 503.209 130.338C503.742 130.061 504.213 129.629 504.621 129.039C504.994 128.5 505.256 127.847 505.408 127.08C505.56 126.313 505.644 125.479 505.66 124.58C505.676 123.68 505.65 122.732 505.581 121.736C505.537 120.757 505.503 119.766 505.477 118.762C503.875 119.815 502.236 120.786 500.559 121.673C498.926 122.553 497.312 123.294 495.718 123.898L495.469 123.27ZM509.473 109.294C508.798 110.268 508.374 111.264 508.201 112.282C508.045 113.274 508.013 114.334 508.105 115.46C508.861 114.807 509.526 114.148 510.1 113.484C510.692 112.793 511.219 112.115 511.68 111.448C512.923 109.653 513.148 108.48 512.353 107.93C512.122 107.77 511.715 107.754 511.133 107.882C510.595 108.003 510.041 108.473 509.473 109.294ZM511.333 132.669C511.839 132.035 512.693 131.04 513.894 129.685C515.115 128.304 516.649 126.556 518.497 124.439C520.345 122.322 522.473 119.83 524.88 116.962C527.287 114.095 529.94 110.844 532.838 107.211C534.258 105.431 535.607 103.715 536.886 102.061C538.209 100.403 539.364 98.9305 540.351 97.6431C541.357 96.3314 542.159 95.2756 542.757 94.4759C543.399 93.6712 543.749 93.2323 543.808 93.1592C543.963 92.9641 544.124 92.8129 544.289 92.7055C544.479 92.6175 544.72 92.5904 545.013 92.6241C545.217 92.6676 545.466 92.7062 545.758 92.7399C546.094 92.7687 546.372 92.8706 546.591 93.0456C546.86 93.2596 547.009 93.4981 547.038 93.7611C547.087 93.9997 547.012 94.3189 546.813 94.7186C546.658 95.1134 546.284 95.7326 545.69 96.5761C545.117 97.3953 544.266 98.512 543.138 99.9263C542.053 101.336 540.626 103.15 538.856 105.369C537.222 107.417 535.481 109.499 533.633 111.616C531.785 113.733 529.942 115.793 528.104 117.798C526.289 119.822 524.519 121.742 522.792 123.556C521.09 125.39 519.543 127.029 518.152 128.473C516.785 129.936 515.635 131.153 514.701 132.124C513.787 133.07 513.213 133.69 512.979 133.982C512.882 134.104 512.765 134.25 512.629 134.421C512.493 134.592 512.369 134.772 512.257 134.962C512.165 135.128 512.095 135.291 512.046 135.452C512.017 135.589 512.051 135.696 512.149 135.774C512.393 135.968 512.96 135.782 513.85 135.216C514.741 134.65 515.919 133.873 517.384 132.887C518.313 132.272 519.289 131.674 520.311 131.093C521.333 130.512 522.3 130.026 523.21 129.635C524.164 129.239 525.011 128.977 525.752 128.849C526.516 128.741 527.094 128.843 527.484 129.154C527.776 129.387 527.952 129.667 528.011 129.993C528.094 130.339 528.102 130.704 528.035 131.089C527.986 131.45 527.882 131.806 527.722 132.157C527.562 132.508 527.399 132.837 527.234 133.144C527.025 133.456 526.711 133.924 526.293 134.548C525.875 135.172 525.389 135.882 524.835 136.676C524.281 137.471 523.697 138.303 523.085 139.17C522.496 140.058 521.937 140.909 521.408 141.723C520.44 143.186 519.982 144.436 520.032 145.473C520.082 146.511 520.534 147.37 521.387 148.051C521.729 148.323 522.016 148.513 522.25 148.619C522.484 148.726 522.687 148.848 522.857 148.984C522.979 149.081 522.906 149.223 522.639 149.408C522.512 149.467 522.169 149.472 521.608 149.424C521.068 149.352 520.334 148.946 519.407 148.207C518.627 147.585 518.066 146.937 517.724 146.266C517.426 145.589 517.332 144.856 517.443 144.067C517.598 143.272 517.94 142.368 518.47 141.354C519.043 140.336 519.801 139.185 520.745 137.902C521.26 137.156 521.795 136.386 522.349 135.591C522.947 134.791 523.45 134.036 523.858 133.324C524.291 132.632 524.59 132.032 524.754 131.525C524.939 130.994 524.897 130.621 524.629 130.407C524.409 130.232 523.961 130.294 523.284 130.592C522.627 130.866 521.892 131.237 521.079 131.706C520.31 132.17 519.544 132.655 518.78 133.163C518.035 133.646 517.456 134.022 517.042 134.291C516.711 134.506 516.176 134.876 515.436 135.404C514.697 135.931 513.911 136.441 513.078 136.934C512.246 137.427 511.458 137.816 510.713 138.099C509.968 138.383 509.425 138.388 509.083 138.116C508.791 137.883 508.685 137.539 508.768 137.086C508.869 136.609 509.056 136.099 509.328 135.558C509.644 135.012 509.984 134.486 510.349 133.979C510.733 133.447 511.061 133.011 511.333 132.669ZM545.003 149.867C544.799 149.674 544.714 149.379 544.747 148.981C544.824 148.581 544.856 148.117 544.841 147.588C544.827 147.059 544.711 146.477 544.495 145.844C544.323 145.208 543.898 144.569 543.218 143.926C542.267 143.025 541.147 142.438 539.86 142.165C538.594 141.869 537.313 141.816 536.017 142.006C534.742 142.173 533.516 142.538 532.34 143.099C531.208 143.66 530.278 144.325 529.549 145.096C528.412 146.296 527.785 147.571 527.668 148.92C527.551 150.269 528.002 151.426 529.021 152.391C529.814 153.142 530.644 153.648 531.512 153.911C532.424 154.173 533.319 154.248 534.199 154.135C534.642 153.395 535.292 152.572 536.15 151.666C537.072 150.692 537.89 149.963 538.605 149.48C539.342 149.019 539.974 148.715 540.499 148.568C541.048 148.442 541.488 148.43 541.822 148.531C542.177 148.61 542.434 148.724 542.593 148.874C542.774 149.046 542.86 149.363 542.851 149.827C542.864 150.312 542.57 150.872 541.97 151.506C541.22 152.299 540.279 152.998 539.148 153.602C538.062 154.206 536.894 154.668 535.645 154.989C535.252 155.949 535.189 156.855 535.455 157.708C535.721 158.562 536.217 159.331 536.942 160.017C537.576 160.618 538.293 161.039 539.094 161.282C539.939 161.524 540.825 161.632 541.751 161.606C542.7 161.602 543.679 161.498 544.688 161.294C545.719 161.067 546.726 160.797 547.71 160.483L547.786 160.812C546.699 161.415 545.543 161.91 544.318 162.297C543.093 162.684 541.886 162.915 540.697 162.992C539.508 163.069 538.38 162.967 537.313 162.688C536.29 162.407 535.405 161.913 534.658 161.205C534.091 160.669 533.64 159.898 533.303 158.893C533.011 157.886 533.11 156.692 533.602 155.31C532.106 155.484 530.638 155.425 529.195 155.133C527.775 154.819 526.543 154.169 525.501 153.183C524.912 152.625 524.509 151.985 524.29 151.263C524.072 150.541 524.007 149.793 524.096 149.018C524.208 148.265 524.463 147.497 524.86 146.714C525.258 145.93 525.779 145.199 526.422 144.52C527.515 143.364 528.858 142.445 530.45 141.761C532.065 141.099 533.73 140.7 535.448 140.565C537.188 140.451 538.869 140.625 540.493 141.088C542.16 141.55 543.594 142.349 544.795 143.486C545.678 144.322 546.318 145.121 546.714 145.882C547.154 146.642 547.427 147.33 547.532 147.944C547.658 148.537 547.672 149.044 547.573 149.466C547.475 149.888 547.35 150.178 547.2 150.336C546.9 150.654 546.516 150.719 546.047 150.534C545.623 150.347 545.275 150.125 545.003 149.867ZM537.871 151.685C537.164 152.432 536.62 153.142 536.242 153.815C537.182 153.502 538.042 153.092 538.823 152.585C539.624 152.056 540.25 151.553 540.701 151.078C541.237 150.511 541.403 150.132 541.199 149.939C540.995 149.746 540.555 149.802 539.88 150.107C539.227 150.434 538.557 150.96 537.871 151.685ZM590.143 127.1C590.695 127.694 590.859 128.351 590.635 129.071C590.432 129.814 589.999 130.494 589.337 131.111C588.995 131.429 588.541 131.788 587.975 132.187C587.43 132.609 586.766 132.972 585.983 133.275C585.2 133.578 584.287 133.788 583.246 133.906C582.204 134.023 581.015 133.959 579.678 133.712C579.436 133.682 579.273 133.621 579.188 133.529C579.147 133.44 579.15 133.351 579.197 133.265C579.244 133.178 579.324 133.104 579.437 133.042C579.549 132.98 579.66 132.961 579.77 132.987C580.294 133.138 580.922 133.15 581.655 133.021C582.388 132.893 583.068 132.708 583.695 132.465C584.365 132.224 584.894 131.945 585.28 131.628C585.69 131.289 585.821 130.996 585.676 130.748C585.322 130.14 585.179 129.528 585.245 128.912C585.332 128.319 585.638 127.779 586.163 127.29C586.894 126.609 587.612 126.282 588.317 126.307C589.045 126.311 589.654 126.575 590.143 127.1ZM549.498 169.473C551.469 169.195 553.393 168.815 555.27 168.33C557.172 167.826 558.947 167.244 560.596 166.586C560.923 165.329 561.332 164.146 561.823 163.036C562.358 161.93 563.079 160.995 563.984 160.23C564.865 159.485 565.734 158.894 566.589 158.456C567.445 158.019 568.244 157.732 568.986 157.595C569.727 157.458 570.38 157.457 570.944 157.593C571.532 157.709 571.987 157.957 572.31 158.338C572.753 158.862 572.843 159.501 572.581 160.253C572.338 161.03 571.792 161.737 570.942 162.374C569.949 163.131 568.814 163.866 567.537 164.578C566.28 165.314 564.919 165.974 563.453 166.559C563.308 167.499 563.173 168.45 563.048 169.414C562.967 170.381 562.812 171.309 562.582 172.197C562.373 173.109 562.045 173.978 561.6 174.804C561.198 175.633 560.616 176.37 559.854 177.014C558.806 177.9 557.67 178.513 556.446 178.853C555.243 179.217 554.088 179.397 552.982 179.393C551.875 179.389 550.892 179.24 550.031 178.946C549.171 178.653 548.559 178.292 548.197 177.863C547.572 177.124 547.28 176.391 547.318 175.664C547.377 174.961 547.633 174.418 548.086 174.036C548.443 173.734 548.851 173.491 549.309 173.308C549.767 173.125 550.199 172.984 550.606 172.886C551.056 172.791 551.437 172.734 551.749 172.716C552.08 172.722 552.276 172.76 552.337 172.832C552.437 172.951 552.45 173.062 552.375 173.167C552.344 173.275 552.292 173.359 552.221 173.419C552.102 173.52 551.925 173.649 551.691 173.807C551.456 173.964 551.267 174.103 551.124 174.224C550.719 174.566 550.497 174.979 550.456 175.463C550.436 175.97 550.687 176.533 551.211 177.153C551.432 177.415 551.744 177.662 552.145 177.895C552.546 178.128 553.008 178.288 553.532 178.376C554.056 178.465 554.589 178.443 555.131 178.311C555.717 178.183 556.284 177.888 556.832 177.425C557.332 177.002 557.755 176.44 558.102 175.739C558.449 175.037 558.747 174.254 558.996 173.39C559.246 172.526 559.467 171.604 559.66 170.624C559.873 169.668 560.098 168.702 560.334 167.726C558.513 168.325 556.678 168.835 554.828 169.256C553.022 169.68 551.27 169.976 549.574 170.143L549.498 169.473ZM566.657 159.624C565.752 160.389 565.083 161.24 564.651 162.178C564.242 163.095 563.935 164.11 563.731 165.222C564.631 164.788 565.444 164.325 566.172 163.833C566.923 163.32 567.608 162.802 568.228 162.279C569.895 160.869 570.417 159.795 569.793 159.057C569.611 158.842 569.223 158.721 568.628 158.694C568.077 158.669 567.42 158.98 566.657 159.624Z" fill="url(#paint0_linear_159_135)"/>
<path d="M501.832 271.699C501.149 276.438 500.847 281.754 500.194 286.687C498.821 296.75 496.958 306.74 494.609 316.621C483.497 363.754 463.758 407.218 440.573 449.491C429.043 470.748 416.346 491.353 402.537 511.208H399.499C397.054 499.905 394.076 489.391 389.068 478.883C383.199 466.568 375.109 455.346 362.836 448.795C359.463 446.996 356.206 445.905 352.625 444.642C359.521 443.391 366.632 444.231 373.048 447.055C388.982 454.039 398.885 470.498 404.953 486.043C405.114 485.817 405.274 485.589 405.432 485.359C408.289 481.199 411.401 475.718 413.938 471.329C419.154 462.324 424.142 453.189 428.896 443.934C455.072 393.309 497.853 295.618 487.115 238.875C484.692 226.065 478.775 213.496 467.67 206.004C444.272 190.22 406.937 203.116 383.225 212.591L370.425 217.841C365.049 220.066 360.696 221.996 354.966 223.127C356.847 220.146 366.259 215.044 369.616 213.314C385.816 204.962 402.828 197.489 420.497 192.872C425.459 191.547 430.503 190.548 435.596 189.878C438.256 189.532 441.064 189.393 443.673 189.008H451.103C452.817 189.278 454.567 189.389 456.293 189.606C468.984 191.203 480.794 197.651 488.41 208.022C495.106 217.14 498.678 228.169 500.528 239.229C500.867 241.281 501.148 243.342 501.375 245.409C501.48 246.33 501.631 248.166 501.831 249.003V189.008H501.832V271.699Z" fill="url(#paint1_linear_159_135)"/>
<path d="M196.305 249.342C196.812 246.23 196.939 243.258 197.62 240.121C204.201 209.79 230.396 198.756 259.105 203.649C302.039 210.966 339.11 240.424 383.921 235.794C398.305 234.348 412.043 229.088 423.715 220.557C426.384 218.646 431.021 214.764 433.647 213.455C429.646 224.01 414.705 233.538 404.844 238.035C367.241 255.183 326.374 241.617 290.002 228.003C270.247 220.609 245.044 209.038 224.6 220.661C217.869 224.555 212.783 231.818 210.138 239.006C202.691 259.245 208.713 279.208 217.264 297.997C218.128 299.895 219.209 302.079 219.929 303.984C217.783 302.967 215.999 301.252 214.365 299.548C208.158 293.075 203.384 284.9 200.374 276.483C198.801 272.136 197.694 267.633 197.074 263.052C196.852 261.356 196.602 257.668 196.305 256.297V249.342Z" fill="url(#paint2_linear_159_135)"/>
<path d="M386.314 251.217C386.72 251.184 387.126 251.158 387.532 251.14C396.545 250.724 409.311 253.331 416.049 259.481C411.008 257.996 407.574 257.016 402.277 256.412C388.275 254.926 374.229 258.8 362.969 267.255C357.824 271.061 352.464 275.783 346.093 277.148C342.948 277.822 340.066 277.551 336.834 277.077C332.275 276.408 324.642 273.148 320.319 274.793C316.014 277.077 318.853 283.036 317.195 286.595C315.042 291.218 309.959 288.961 306.235 289.997C305.554 290.187 304.859 291.041 304.653 291.72C303.575 295.263 305.08 299.22 306.488 302.459C304.456 301.072 294.852 295.374 295.9 301.991C296.099 303.245 296.429 304.493 296.281 305.769C295.803 310.629 289.083 310.55 286.313 313.064C281.215 317.694 286.534 325.662 289.845 329.715C297.799 339.453 306.193 346.137 310.619 358.371C321.703 389.003 300.182 418.183 298.362 448.336C302.657 445.776 306.687 441.529 310.215 437.992C313.908 434.308 317.535 430.559 321.094 426.745C332.364 414.702 357.404 388.116 358.645 371.682C359.171 364.73 357.207 360.045 352.751 354.851C354.882 355.632 356.471 356.535 358.227 358.001C369.745 367.623 364.323 383.766 357.862 394.668C353.691 401.705 348.548 407.556 343.274 413.756L332.19 426.896C321.888 438.763 277.41 492.9 266.052 494.737C264.979 494.91 263.938 494.657 263.06 494.017C259.867 491.685 258.29 483.92 257.723 480.125C255.152 462.925 257.267 442.847 260.957 425.965C261.455 423.684 262.379 418.509 263.718 416.7L263.915 416.708C264.639 418.67 263.698 429.202 263.589 432.256C263.269 441.222 264.02 467.254 269.023 474.678C269.436 475.29 269.86 475.742 270.596 475.898C271.005 475.824 271.277 475.692 271.605 475.432C277.848 470.512 292.984 423.116 295.795 413.461C297.683 406.9 299.413 400.296 300.983 393.652C301.961 389.585 303.048 385.572 303.603 381.477C305.574 366.92 302.762 355.275 292.947 344.046C289.212 339.703 284.683 334.64 281.235 330.232C274.415 321.511 271.261 310.157 284.601 306.145C285.853 305.768 287.245 304.979 288.338 304.269C292.073 301.841 288.136 297.444 291.257 294.981C293.137 293.539 296.174 294.01 298.355 294.405C297.544 291.628 296.456 287.771 298.622 285.19C300.868 282.514 304.623 284.344 307.385 283.981C313.597 283.163 309.578 273.371 312.836 269.95C316.967 265.226 327.451 269.413 333.479 269.941C349.053 271.306 351.316 264.473 363.508 257.897C370.849 253.937 378.16 251.909 386.314 251.217Z" fill="url(#paint3_linear_159_135)"/>
<path d="M381.703 267.502L381.805 267.559C381.684 268.026 379.349 271.61 378.918 272.322C365.935 293.757 376.401 312.88 385.897 332.825C389.695 340.803 392.41 351.214 392.199 360.336C391.869 374.668 383.606 387.547 373.39 397.101C372.389 398.046 368.004 402.076 366.997 402.047C374.966 394.532 381.344 386.18 384.196 375.474C392.308 345.018 361.151 323.261 366.146 292.821C367.746 283.077 373.646 273.27 381.703 267.502Z" fill="url(#paint4_linear_159_135)"/>
<path d="M179.893 601.266C179.423 601.872 178.863 602.438 178.212 602.964C177.629 603.481 177.049 604.032 176.474 604.617C175.841 605.278 175.174 605.943 174.473 606.612C173.81 607.31 173.147 608.008 172.484 608.707C171.9 609.224 171.407 609.509 171.004 609.56C170.63 609.573 170.121 609.33 169.477 608.83C165.616 605.835 161.769 602.821 157.938 599.788C154.135 596.717 150.303 593.684 146.442 590.689C145.117 589.661 143.748 588.69 142.335 587.776C140.892 586.9 139.509 585.948 138.184 584.92C137.54 584.421 137.468 583.849 137.967 583.206C138.466 582.562 139 582.461 139.568 582.901C140.165 583.304 140.815 583.717 141.517 584.14C142.333 584.652 143.159 584.838 143.995 584.698C144.898 584.55 145.966 583.681 147.2 582.091L170.941 551.485C171.411 550.879 171.752 550.204 171.966 549.46C172.217 548.745 171.964 548.094 171.207 547.507C170.752 547.155 170.284 546.821 169.8 546.507C169.346 546.154 168.891 545.802 168.437 545.45C167.491 544.715 167.37 543.894 168.075 542.986C168.427 542.531 168.799 542.365 169.19 542.486C169.61 542.57 170.009 542.758 170.388 543.052C171.486 543.904 172.535 544.778 173.536 545.676C174.567 546.536 175.612 547.377 176.672 548.2C180.231 550.96 183.804 553.701 187.392 556.424C191.009 559.108 194.597 561.831 198.155 564.591C198.836 565.119 199.532 565.629 200.243 566.12C200.983 566.573 201.724 567.025 202.464 567.478C202.07 568.143 201.675 568.807 201.281 569.472C200.925 570.165 200.55 570.844 200.156 571.509C199.711 572.316 199.275 573.191 198.848 574.133C198.459 575.104 197.97 575.968 197.383 576.725C197.031 577.179 196.548 577.411 195.934 577.42C195.35 577.392 194.85 577.216 194.433 576.893C193.525 576.188 193.227 575.321 193.541 574.291C194.354 572.071 194.647 569.934 194.422 567.879C194.263 565.817 193.181 564.007 191.175 562.451L180.954 554.522L168.004 571.216C169.443 572.332 170.858 573.4 172.25 574.419C173.68 575.468 175.14 576.479 176.628 577.452C178.117 578.424 179.637 579.24 181.188 579.897C181.807 580.195 182.473 580.469 183.188 580.721C183.94 581.001 184.581 581.347 185.111 581.758C185.566 582.11 185.631 582.495 185.308 582.911C185.103 583.176 184.719 583.515 184.156 583.927C183.631 584.369 183.228 584.693 182.947 584.9C182.376 585.245 181.952 585.401 181.675 585.368C181.427 585.297 181.057 585.07 180.564 584.688C179.656 583.984 178.81 583.237 178.028 582.448C176.707 581.181 175.323 579.955 173.876 578.772C172.458 577.551 171.011 576.368 169.535 575.223C168.702 574.577 167.825 574.261 166.905 574.275C166.052 574.28 165.273 574.737 164.568 575.646L153.733 589.614C153.028 590.523 152.643 591.255 152.576 591.809C152.547 592.393 153.006 593.052 153.953 593.787C154.975 594.579 156.11 595.46 157.36 596.429C158.609 597.398 159.921 598.325 161.296 599.21C162.709 600.124 164.131 600.833 165.56 601.335C166.989 601.837 168.376 602.004 169.72 601.834C170.863 601.69 172.148 601.322 173.576 600.732C175.004 600.142 176.23 599.577 177.255 599.038C177.797 598.731 178.221 598.575 178.528 598.57C178.864 598.528 179.278 598.697 179.77 599.079C180.224 599.431 180.439 599.78 180.414 600.125C180.389 600.469 180.216 600.85 179.893 601.266ZM248.482 647.053C248.067 647.969 247.489 648.26 246.747 647.924C245.175 647.213 243.614 646.479 242.062 645.725C240.555 644.99 239.037 644.276 237.509 643.585C236.025 642.913 234.531 642.263 233.028 641.635C231.504 641.051 230 640.423 228.516 639.751C228.08 639.554 227.834 639.284 227.778 638.943C227.741 638.559 227.802 638.192 227.96 637.843C228.118 637.494 228.368 637.291 228.709 637.235C229.113 637.155 229.468 637.184 229.773 637.323C230.166 637.5 230.549 637.7 230.922 637.921C231.295 638.143 231.678 638.342 232.071 638.52C232.158 638.56 232.267 638.609 232.398 638.668C232.529 638.728 232.638 638.777 232.726 638.817C233.507 639.065 234.088 638.828 234.467 638.106C234.91 637.36 235.25 636.725 235.487 636.201L250.896 602.157C245.603 607.228 240.276 612.259 234.916 617.247C229.618 622.212 224.335 627.262 219.066 632.397L213.959 630.086C214.395 622.5 214.724 614.918 214.946 607.341C215.211 599.783 215.54 592.201 215.933 584.596C213.226 590.575 210.563 596.575 207.944 602.594C205.344 608.569 202.691 614.547 199.985 620.527C199.748 621.05 199.483 621.693 199.191 622.455C198.962 623.193 199.219 623.73 199.961 624.065C200.528 624.322 201.084 624.547 201.627 624.741C202.171 624.934 202.726 625.159 203.294 625.416C203.599 625.554 203.802 625.804 203.902 626.165C204.021 626.482 204.012 626.793 203.873 627.098C203.774 627.317 203.569 627.539 203.256 627.765C202.963 627.948 202.685 627.981 202.423 627.862C201.638 627.506 200.862 627.129 200.096 626.73C199.33 626.33 198.554 625.953 197.769 625.597C196.372 624.965 194.944 624.345 193.484 623.737C192.023 623.128 190.595 622.508 189.198 621.876C188.762 621.679 188.528 621.441 188.495 621.163C188.483 620.842 188.566 620.485 188.743 620.093C188.901 619.743 189.151 619.541 189.492 619.485C189.876 619.448 190.2 619.489 190.462 619.608C190.854 619.786 191.237 619.985 191.61 620.207C192.027 620.448 192.432 620.658 192.825 620.835C193.567 621.171 194.13 621.321 194.514 621.285C194.962 621.225 195.374 620.78 195.749 619.95C198.752 613.316 201.777 606.692 204.823 600.077C207.933 593.439 210.99 586.802 213.992 580.168C214.309 579.47 214.405 578.908 214.281 578.484C214.221 578.036 213.82 577.645 213.078 577.309C212.641 577.111 212.195 576.935 211.739 576.782C211.283 576.628 210.836 576.452 210.4 576.254C210.051 576.096 209.804 575.827 209.661 575.447C209.518 575.066 209.525 574.701 209.683 574.352C210.058 573.523 210.683 573.306 211.556 573.701C212.603 574.175 213.641 574.671 214.669 575.189C215.74 575.726 216.799 576.232 217.847 576.706C219.113 577.279 220.378 577.852 221.644 578.425C222.954 579.018 224.271 579.535 225.596 579.977L223.838 622.725C228.902 617.812 234.054 612.992 239.297 608.265C244.602 603.515 249.63 598.507 254.379 593.242C255.363 593.74 256.348 594.238 257.332 594.736C258.379 595.21 259.427 595.684 260.474 596.158C261.827 596.771 263.2 597.339 264.593 597.864C266.029 598.409 267.424 598.988 268.777 599.6C269.126 599.758 269.297 600.02 269.289 600.385C269.302 600.706 269.249 600.997 269.13 601.259C269.012 601.521 268.808 601.797 268.519 602.087C268.25 602.333 267.94 602.377 267.591 602.219C266.98 601.943 266.347 601.656 265.693 601.36C265.101 601.04 264.5 600.741 263.889 600.465C263.453 600.267 263.036 600.315 262.64 600.609C262.308 600.88 262.052 601.211 261.875 601.604C260.729 604.135 259.541 606.701 258.312 609.3C257.147 611.875 255.981 614.45 254.816 617.025C253.077 620.866 251.339 624.707 249.6 628.548C247.905 632.409 246.189 636.259 244.45 640.1C244.273 640.493 244.087 640.961 243.893 641.505C243.744 642.068 243.679 642.617 243.7 643.153C243.784 643.664 244.088 644.038 244.612 644.275C245.135 644.512 245.669 644.728 246.213 644.921C246.756 645.114 247.312 645.34 247.879 645.596C248.141 645.715 248.341 645.911 248.481 646.184C248.62 646.458 248.62 646.747 248.482 647.053ZM297.917 609.147C297.735 609.941 297.271 610.253 296.524 610.082C295.963 609.954 295.38 609.821 294.772 609.682C294.223 609.507 293.667 609.356 293.107 609.228C292.64 609.121 292.265 609.257 291.982 609.634C291.71 609.965 291.526 610.341 291.43 610.761C291.056 612.396 290.654 614.049 290.223 615.719C289.85 617.354 289.476 618.989 289.103 620.624C287.929 625.761 286.749 630.922 285.565 636.107C284.438 641.255 283.287 646.398 282.113 651.536C282.039 651.862 281.898 652.371 281.691 653.061C281.484 653.751 281.382 654.415 281.383 655.054C281.442 655.658 281.728 656.018 282.242 656.135C282.849 656.274 283.461 656.389 284.079 656.481C284.697 656.573 285.31 656.689 285.917 656.828C286.244 656.902 286.445 657.096 286.521 657.408C286.608 657.674 286.614 657.97 286.539 658.297C286.465 658.624 286.284 658.877 285.997 659.057C285.746 659.295 285.434 659.371 285.06 659.286C283.472 658.923 281.89 658.537 280.312 658.127C278.782 657.728 277.222 657.347 275.634 656.985C274.046 656.622 272.453 656.282 270.854 655.966C269.256 655.65 267.662 655.31 266.074 654.948C265.607 654.841 265.325 654.678 265.228 654.459C265.13 654.24 265.129 653.921 265.226 653.5C265.311 653.127 265.45 652.839 265.644 652.638C265.895 652.4 266.207 652.324 266.581 652.409C267.094 652.527 267.603 652.668 268.106 652.832C268.609 652.996 269.094 653.131 269.561 653.238C270.215 653.387 270.707 653.279 271.036 652.912C271.366 652.545 271.618 652.086 271.793 651.536C271.978 650.94 272.119 650.431 272.215 650.011L281.473 609.813C281.569 609.393 281.661 608.775 281.75 607.96C281.848 607.098 281.623 606.579 281.073 606.405C280.933 606.373 280.793 606.341 280.652 606.308C280.559 606.287 280.442 606.26 280.302 606.228C279.835 606.122 279.363 606.038 278.885 605.978C278.454 605.929 278.005 605.851 277.538 605.744C276.65 605.542 276.308 604.996 276.511 604.109C276.586 603.782 276.743 603.523 276.983 603.332C277.27 603.152 277.577 603.099 277.904 603.174C279.912 603.633 281.887 604.133 283.827 604.675C285.814 605.227 287.812 605.733 289.82 606.192C291.034 606.469 292.259 606.7 293.495 606.884C294.777 607.079 296.026 607.315 297.24 607.592C297.614 607.678 297.839 607.876 297.915 608.189C297.991 608.501 297.992 608.821 297.917 609.147ZM361.48 613.391C361.436 614.3 360.959 614.732 360.05 614.688C359.667 614.669 359.285 614.627 358.905 614.56C358.524 614.494 358.143 614.451 357.76 614.433C357.569 614.423 357.352 614.437 357.11 614.473C356.871 614.461 356.632 614.45 356.393 614.438C355.914 614.415 355.588 614.711 355.414 615.326C355.243 615.893 355.139 616.536 355.105 617.254C355.072 617.923 355.049 618.402 355.035 618.689L352.86 663.408C352.844 663.743 352.782 664.028 352.675 664.262C352.615 664.499 352.369 664.631 351.936 664.658C351.261 664.721 350.542 664.71 349.779 664.625C349.013 664.588 348.294 664.577 347.622 664.592C347.3 663.329 346.808 662.106 346.146 660.923C345.532 659.742 344.867 658.606 344.153 657.516C340.062 650.89 335.698 644.466 331.06 638.245C326.47 632.026 322.079 625.648 317.888 619.113C317.574 625.573 317.236 632.032 316.874 638.49C316.562 644.902 316.249 651.339 315.935 657.799C315.914 658.229 315.935 658.782 315.998 659.457C316.112 660.086 316.455 660.414 317.03 660.442C317.7 660.475 318.371 660.483 319.043 660.468C319.763 660.455 320.434 660.464 321.056 660.494C321.439 660.513 321.669 660.716 321.746 661.103C321.873 661.445 321.931 661.736 321.92 661.975C321.903 662.31 321.792 662.616 321.587 662.894C321.43 663.174 321.159 663.305 320.777 663.286C319.963 663.247 319.152 663.159 318.343 663.024C317.534 662.889 316.723 662.802 315.909 662.762C314.809 662.708 313.683 662.678 312.532 662.67C311.384 662.614 310.257 662.607 309.152 662.649C308.719 662.676 308.287 662.679 307.856 662.658C307.471 662.687 307.087 662.693 306.704 662.674C305.747 662.627 305.293 662.102 305.342 661.097C305.361 660.714 305.519 660.41 305.818 660.185C306.119 659.912 306.437 659.783 306.772 659.799C307.251 659.823 307.703 659.893 308.129 660.009C308.557 660.078 309.011 660.124 309.489 660.147C310.207 660.182 310.738 660.112 311.082 659.937C311.477 659.716 311.695 659.175 311.737 658.314C312.058 651.71 312.427 645.109 312.844 638.51C313.309 631.913 313.702 625.313 314.023 618.709C314.053 618.087 314.082 617.489 314.11 616.915C314.138 616.34 314.167 615.742 314.197 615.12C314.227 614.498 314.138 613.87 313.929 613.236C313.768 612.605 313.305 612.271 312.539 612.234C311.965 612.206 311.365 612.2 310.741 612.218C310.164 612.238 309.565 612.233 308.943 612.203C308.129 612.163 307.745 611.689 307.789 610.779C307.831 609.918 308.282 609.508 309.144 609.55C310.388 609.611 311.631 609.695 312.873 609.804C314.115 609.912 315.334 609.995 316.53 610.053C317.631 610.107 318.731 610.16 319.832 610.214C320.983 610.222 322.109 610.253 323.209 610.306C325.846 614.272 328.633 618.125 331.569 621.865C334.555 625.56 337.392 629.367 340.079 633.287C341.644 635.618 343.234 637.949 344.847 640.282C346.46 642.615 348.099 644.925 349.762 647.212C350.009 642.14 350.256 637.068 350.502 631.995C350.797 626.925 351.068 621.854 351.314 616.781C351.335 616.351 351.289 615.821 351.176 615.192C351.113 614.517 350.77 614.165 350.148 614.134L348.21 614.04C347.923 614.026 347.633 614.06 347.341 614.142C347.052 614.176 346.764 614.186 346.477 614.172C345.567 614.128 345.137 613.603 345.186 612.598C345.214 612.024 345.398 611.697 345.737 611.618C346.079 611.49 346.49 611.438 346.968 611.462C347.925 611.508 348.857 611.577 349.764 611.67C350.719 611.764 351.651 611.833 352.56 611.877C353.804 611.938 355.051 611.951 356.299 611.915C357.596 611.883 358.867 611.896 360.111 611.957C360.494 611.975 360.822 612.135 361.095 612.436C361.37 612.69 361.499 613.008 361.48 613.391ZM418.543 644.823C418.667 645.58 418.7 646.375 418.641 647.21C418.623 647.99 418.632 648.789 418.669 649.608C418.72 650.522 418.753 651.463 418.765 652.432C418.825 653.393 418.884 654.355 418.944 655.316C418.925 656.095 418.797 656.65 418.56 656.98C418.315 657.263 417.79 657.47 416.987 657.601C412.163 658.387 407.337 659.15 402.506 659.889C397.667 660.581 392.836 661.321 388.013 662.107C386.358 662.377 384.715 662.718 383.083 663.129C381.459 663.589 379.82 663.953 378.165 664.223C377.361 664.354 376.893 664.018 376.762 663.214C376.631 662.41 376.92 661.95 377.629 661.834C378.331 661.672 379.076 661.477 379.864 661.252C380.795 661.003 381.493 660.525 381.961 659.818C382.467 659.055 382.559 657.681 382.235 655.695L376.001 617.465C375.877 616.709 375.616 615.999 375.217 615.336C374.864 614.665 374.216 614.407 373.27 614.561C372.702 614.654 372.139 614.77 371.579 614.91C371.012 615.002 370.444 615.095 369.877 615.187C368.695 615.38 368.011 614.909 367.826 613.774C367.734 613.207 367.865 612.821 368.22 612.618C368.568 612.367 368.978 612.203 369.451 612.126C370.822 611.902 372.177 611.73 373.517 611.608C374.848 611.44 376.176 611.248 377.5 611.032C381.945 610.307 386.386 609.558 390.823 608.786C395.252 607.967 399.689 607.195 404.134 606.47C404.985 606.331 405.832 606.169 406.676 605.983C407.512 605.749 408.347 605.516 409.183 605.283C409.401 606.024 409.619 606.765 409.837 607.506C410.102 608.239 410.344 608.977 410.562 609.718C410.85 610.593 411.193 611.508 411.592 612.462C412.037 613.409 412.337 614.355 412.491 615.301C412.584 615.868 412.425 616.38 412.013 616.835C411.595 617.243 411.125 617.49 410.605 617.575C409.47 617.76 408.633 617.387 408.092 616.455C407.021 614.348 405.656 612.678 403.998 611.443C402.38 610.154 400.318 609.713 397.812 610.122L385.045 612.204L388.446 633.057C390.243 632.764 391.988 632.455 393.683 632.13C395.425 631.797 397.159 631.417 398.885 630.99C400.612 630.563 402.244 630.006 403.782 629.318C404.421 629.068 405.076 628.767 405.747 628.415C406.465 628.055 407.155 627.821 407.817 627.713C408.384 627.621 408.71 627.835 408.795 628.355C408.849 628.686 408.835 629.198 408.754 629.891C408.72 630.576 408.683 631.092 408.643 631.438C408.506 632.091 408.332 632.508 408.118 632.688C407.897 632.822 407.479 632.938 406.865 633.038C405.73 633.224 404.607 633.334 403.496 633.369C401.669 633.473 399.829 633.652 397.977 633.905C396.118 634.111 394.266 634.365 392.422 634.666C391.381 634.835 390.553 635.262 389.936 635.945C389.359 636.573 389.163 637.454 389.348 638.589L392.193 656.037C392.378 657.172 392.651 657.953 393.012 658.379C393.42 658.798 394.215 658.911 395.398 658.719C396.674 658.51 398.093 658.279 399.653 658.025C401.214 657.77 402.786 657.441 404.371 657.037C406.002 656.625 407.489 656.067 408.831 655.363C410.172 654.659 411.238 653.757 412.03 652.657C412.703 651.722 413.309 650.531 413.85 649.083C414.391 647.636 414.813 646.354 415.116 645.236C415.26 644.63 415.434 644.213 415.64 643.986C415.838 643.711 416.244 643.523 416.859 643.423C417.426 643.33 417.828 643.411 418.063 643.663C418.299 643.916 418.459 644.303 418.543 644.823ZM469.041 584.997C469.374 585.844 469.117 586.434 468.27 586.768C467.913 586.908 467.548 587.026 467.174 587.122C466.8 587.217 466.434 587.335 466.078 587.476C465.899 587.546 465.707 587.647 465.502 587.779C465.279 587.867 465.056 587.955 464.833 588.043C464.387 588.218 464.212 588.622 464.306 589.254C464.383 589.842 464.553 590.47 464.816 591.139C465.061 591.763 465.237 592.209 465.342 592.476L481.735 634.139C481.858 634.451 481.918 634.736 481.917 634.994C481.96 635.234 481.79 635.456 481.406 635.658C480.817 635.993 480.157 636.278 479.426 636.514C478.713 636.795 478.053 637.08 477.446 637.371C476.633 636.352 475.682 635.439 474.592 634.632C473.547 633.808 472.475 633.045 471.376 632.345C464.924 627.985 458.305 623.922 451.52 620.156C444.78 616.372 438.157 612.362 431.651 608.127C434.019 614.145 436.365 620.173 438.688 626.209C441.039 632.183 443.398 638.179 445.766 644.198C445.924 644.599 446.171 645.094 446.505 645.683C446.867 646.21 447.316 646.369 447.851 646.158C448.475 645.912 449.09 645.645 449.697 645.354C450.348 645.047 450.963 644.779 451.543 644.551C451.9 644.41 452.193 644.501 452.422 644.823C452.679 645.082 452.851 645.323 452.938 645.546C453.061 645.858 453.086 646.183 453.013 646.521C452.985 646.841 452.792 647.071 452.435 647.211C451.677 647.51 450.902 647.763 450.109 647.972C449.316 648.181 448.541 648.435 447.783 648.733C446.757 649.137 445.718 649.571 444.666 650.037C443.596 650.458 442.566 650.915 441.575 651.407C441.192 651.61 440.799 651.79 440.398 651.948C440.059 652.133 439.711 652.295 439.354 652.436C438.463 652.786 437.833 652.494 437.464 651.558C437.324 651.201 437.344 650.858 437.523 650.53C437.686 650.158 437.923 649.91 438.235 649.787C438.681 649.612 439.122 649.49 439.558 649.421C439.977 649.308 440.409 649.163 440.855 648.988C441.524 648.725 441.979 648.442 442.221 648.141C442.49 647.778 442.467 647.195 442.151 646.393C439.73 640.24 437.354 634.07 435.022 627.883C432.735 621.678 430.381 615.499 427.961 609.347C427.733 608.767 427.513 608.21 427.303 607.675C427.092 607.14 426.873 606.583 426.645 606.003C426.417 605.424 426.077 604.888 425.626 604.396C425.22 603.887 424.66 603.772 423.947 604.053C423.412 604.263 422.863 604.505 422.301 604.778C421.784 605.033 421.235 605.274 420.656 605.502C419.898 605.8 419.352 605.526 419.019 604.679C418.703 603.876 418.947 603.317 419.749 603.002C420.908 602.545 422.076 602.112 423.253 601.7C424.43 601.289 425.575 600.864 426.69 600.425C427.715 600.022 428.741 599.618 429.766 599.215C430.818 598.749 431.857 598.315 432.883 597.911C436.916 600.443 441.04 602.81 445.254 605.014C449.494 607.155 453.645 609.461 457.706 611.93C460.09 613.412 462.498 614.884 464.927 616.348C467.356 617.812 469.799 619.245 472.256 620.647C470.396 615.921 468.537 611.195 466.678 606.469C464.863 601.726 463.026 596.991 461.166 592.266C461.008 591.864 460.748 591.4 460.387 590.873C460.052 590.284 459.595 590.104 459.015 590.332L457.21 591.042C456.942 591.148 456.692 591.297 456.46 591.492C456.21 591.642 455.951 591.769 455.684 591.874C454.836 592.208 454.229 591.906 453.86 590.97C453.65 590.435 453.683 590.062 453.96 589.85C454.22 589.593 454.572 589.377 455.018 589.202C455.91 588.851 456.788 588.531 457.652 588.242C458.562 587.936 459.44 587.616 460.287 587.283C461.446 586.827 462.588 586.326 463.712 585.781C464.88 585.218 466.044 584.709 467.203 584.253C467.56 584.112 467.925 584.123 468.297 584.285C468.653 584.403 468.9 584.64 469.041 584.997ZM521.023 565.867C521.289 566.265 521.443 566.71 521.483 567.202C521.497 567.654 521.285 568.026 520.847 568.319C520.209 568.745 519.678 568.898 519.253 568.779C518.867 568.634 518.422 568.355 517.916 567.944C517.424 567.466 516.772 566.922 515.961 566.312C515.163 565.636 514.338 565.006 513.487 564.422C512.649 563.772 511.924 563.335 511.312 563.109C510.993 562.977 510.668 562.878 510.335 562.812C509.976 562.706 509.631 562.62 509.299 562.554C508.78 562.382 508.123 562.476 507.326 562.836C506.502 563.156 505.712 563.569 504.956 564.075C504.172 564.541 503.561 564.92 503.123 565.213C502.606 565.559 502.048 565.932 501.451 566.332C500.853 566.731 500.429 567.217 500.177 567.788C499.899 568.32 499.979 568.958 500.419 569.702C501.284 571.082 502.196 572.49 503.155 573.923C504.087 575.317 505.019 576.711 505.951 578.105C508.987 582.646 512.022 587.186 515.058 591.726C518.134 596.24 521.189 600.767 524.225 605.307C524.544 605.785 524.977 606.303 525.522 606.86C526.108 607.391 526.719 607.443 527.356 607.017C527.954 606.618 528.518 606.212 529.049 605.799C529.62 605.36 530.204 604.941 530.801 604.541C531.12 604.328 531.452 604.308 531.798 604.48C532.117 604.612 532.356 604.798 532.516 605.037C532.995 605.754 532.896 606.339 532.219 606.792C531.781 607.084 531.31 607.371 530.805 607.65C530.341 607.904 529.876 608.157 529.411 608.41C528.601 608.836 527.818 609.302 527.061 609.808C526.304 610.314 525.528 610.833 524.731 611.366C523.417 612.245 522.103 613.123 520.788 614.002C519.474 614.881 518.186 615.799 516.925 616.758C516.474 617.117 516.003 617.49 515.512 617.876C515.06 618.235 514.596 618.575 514.118 618.894C513.759 619.134 513.401 619.201 513.042 619.095C512.683 618.989 512.397 618.777 512.184 618.458C511.891 618.02 511.897 617.642 512.202 617.322C512.481 616.963 512.779 616.677 513.098 616.464C513.536 616.171 513.948 615.925 514.333 615.725C514.731 615.459 515.129 615.192 515.528 614.926C516.563 614.234 516.981 613.609 516.781 613.051C516.621 612.466 516.247 611.736 515.662 610.86L493.373 577.524C492.335 575.971 491.563 574.989 491.057 574.577C490.525 574.126 489.921 574.127 489.244 574.58C488.54 574.993 487.411 575.718 485.858 576.757C485.34 577.103 484.637 577.602 483.747 578.255C482.898 578.88 482.334 579.459 482.056 579.991C481.724 580.616 481.559 581.274 481.56 581.965C481.534 582.616 481.608 583.287 481.782 583.978C482.076 585.107 482.383 586.256 482.703 587.424C483.064 588.567 483.391 589.702 483.684 590.831C483.898 591.496 483.978 592.047 483.926 592.485C483.847 592.884 483.488 593.297 482.851 593.723C482.094 594.229 481.45 594.083 480.917 593.287C480.225 592.251 479.539 591.01 478.859 589.562C478.193 588.048 477.494 586.701 476.761 585.519C476.375 584.855 475.949 584.218 475.483 583.607C475.03 582.93 474.664 582.253 474.384 581.576C474.237 581.27 474.284 581.038 474.523 580.878C474.961 580.585 475.439 580.352 475.957 580.178C476.515 579.978 477.039 579.772 477.53 579.558C478.035 579.279 478.54 578.999 479.044 578.719C479.562 578.373 480.093 578.047 480.637 577.74C482.775 576.369 484.992 574.944 487.289 573.466C489.599 571.922 491.789 570.457 493.86 569.072C496.21 567.501 498.666 565.83 501.228 564.06C503.79 562.289 506.246 560.618 508.596 559.047C508.835 558.887 509.074 558.728 509.313 558.568C509.592 558.381 509.838 558.188 510.05 557.989C510.435 557.616 510.773 557.217 511.065 556.792C511.396 556.339 511.781 555.967 512.219 555.674C512.418 555.541 512.624 555.547 512.837 555.693C513.33 556.171 513.849 556.774 514.394 557.505C514.913 558.195 515.379 558.805 515.792 559.336C516.657 560.372 517.549 561.447 518.467 562.562C519.399 563.61 520.251 564.712 521.023 565.867Z" fill="url(#paint5_linear_159_135)"/>
<path fill-rule="evenodd" clip-rule="evenodd" d="M592.347 189.868C626.303 238.089 646.245 296.891 646.245 360.35L646.239 362.267C645.701 447.24 609.41 523.729 551.654 577.452V569.2C606.286 516.388 640.257 442.336 640.257 360.35C640.257 297.889 620.539 240.033 586.99 192.666H592.347V189.868ZM107.262 192.666H112.618C79.0696 240.033 59.3525 297.889 59.3525 360.35C59.3526 432.934 85.9774 499.299 129.993 550.212V559.249C82.7699 507.092 53.8501 438.054 53.3701 362.267L53.3643 360.35C53.3643 296.891 73.3049 238.089 107.262 189.868V192.666Z" fill="url(#paint6_linear_159_135)"/>
<path d="M120.439 718.247C124.169 718.247 127.391 718.95 130.107 720.357C132.855 721.731 134.949 723.711 136.389 726.295C137.861 728.88 138.597 731.923 138.597 735.423C138.597 738.924 137.861 741.967 136.389 744.551C134.949 747.103 132.855 749.066 130.107 750.441C127.391 751.782 124.169 752.453 120.439 752.453H109.79V718.247H120.439ZM120.439 748.772C124.856 748.772 128.226 747.611 130.549 745.288C132.872 742.932 134.033 739.644 134.033 735.423C134.033 731.17 132.855 727.849 130.5 725.461C128.177 723.073 124.823 721.878 120.439 721.878H114.256V748.772H120.439ZM165.59 737.975C165.59 738.826 165.541 739.726 165.443 740.674H143.948C144.111 743.325 145.011 745.402 146.647 746.907C148.316 748.379 150.328 749.115 152.683 749.115C154.614 749.115 156.217 748.674 157.493 747.79C158.801 746.874 159.718 745.664 160.241 744.159H165.05C164.331 746.743 162.891 748.854 160.732 750.49C158.572 752.093 155.89 752.894 152.683 752.894C150.131 752.894 147.841 752.322 145.813 751.177C143.817 750.032 142.247 748.412 141.101 746.318C139.956 744.192 139.384 741.738 139.384 738.957C139.384 736.176 139.94 733.738 141.052 731.645C142.165 729.551 143.719 727.948 145.715 726.835C147.743 725.69 150.066 725.117 152.683 725.117C155.235 725.117 157.493 725.674 159.456 726.786C161.419 727.898 162.924 729.436 163.971 731.399C165.05 733.329 165.59 735.522 165.59 737.975ZM160.977 737.043C160.977 735.342 160.601 733.886 159.848 732.675C159.096 731.432 158.065 730.499 156.757 729.878C155.481 729.223 154.057 728.896 152.487 728.896C150.23 728.896 148.299 729.616 146.696 731.056C145.126 732.495 144.226 734.491 143.997 737.043H160.977ZM181.153 725.068C184.425 725.068 187.075 726.066 189.103 728.062C191.132 730.025 192.146 732.871 192.146 736.601V752.453H187.729V737.239C187.729 734.556 187.058 732.512 185.717 731.105C184.376 729.665 182.543 728.945 180.221 728.945C177.865 728.945 175.984 729.682 174.577 731.154C173.203 732.626 172.516 734.769 172.516 737.583V752.453H168.05V725.559H172.516V729.387C173.399 728.013 174.593 726.95 176.098 726.197C177.636 725.445 179.321 725.068 181.153 725.068ZM201.453 729.24V745.091C201.453 746.4 201.731 747.332 202.287 747.889C202.844 748.412 203.809 748.674 205.183 748.674H208.471V752.453H204.447C201.96 752.453 200.095 751.88 198.852 750.735C197.609 749.59 196.987 747.709 196.987 745.091V729.24H193.503V725.559H196.987V718.787H201.453V725.559H208.471V729.24H201.453ZM208.778 738.908C208.778 736.16 209.334 733.755 210.447 731.694C211.559 729.6 213.08 727.98 215.011 726.835C216.974 725.69 219.149 725.117 221.538 725.117C223.893 725.117 225.938 725.625 227.672 726.639C229.406 727.653 230.698 728.929 231.549 730.467V725.559H236.064V752.453H231.549V747.447C230.666 749.017 229.341 750.326 227.574 751.373C225.84 752.387 223.811 752.894 221.489 752.894C219.1 752.894 216.941 752.305 215.011 751.128C213.08 749.95 211.559 748.298 210.447 746.171C209.334 744.044 208.778 741.623 208.778 738.908ZM231.549 738.957C231.549 736.928 231.14 735.162 230.322 733.657C229.504 732.152 228.392 731.007 226.985 730.221C225.611 729.403 224.09 728.994 222.421 728.994C220.752 728.994 219.231 729.387 217.857 730.172C216.483 730.957 215.387 732.103 214.569 733.608C213.751 735.113 213.342 736.879 213.342 738.908C213.342 740.969 213.751 742.768 214.569 744.306C215.387 745.811 216.483 746.973 217.857 747.79C219.231 748.576 220.752 748.968 222.421 748.968C224.09 748.968 225.611 748.576 226.985 747.79C228.392 746.973 229.504 745.811 230.322 744.306C231.14 742.768 231.549 740.985 231.549 738.957ZM244.642 716.137V752.453H240.176V716.137H244.642ZM284.721 752.453L280.256 747.938C278.587 749.672 276.804 750.964 274.906 751.815C273.009 752.633 270.866 753.042 268.477 753.042C266.122 753.042 264.028 752.616 262.196 751.766C260.396 750.915 258.989 749.704 257.975 748.134C256.994 746.564 256.503 744.731 256.503 742.638C256.503 740.249 257.174 738.155 258.515 736.356C259.889 734.524 261.901 733.084 264.551 732.037C263.504 730.794 262.752 729.649 262.294 728.602C261.836 727.555 261.607 726.41 261.607 725.167C261.607 723.727 261.967 722.435 262.686 721.29C263.439 720.112 264.502 719.196 265.876 718.541C267.251 717.887 268.837 717.56 270.637 717.56C272.403 717.56 273.941 717.903 275.25 718.59C276.559 719.277 277.54 720.243 278.194 721.486C278.849 722.696 279.143 724.054 279.078 725.559H274.612C274.645 724.218 274.268 723.171 273.483 722.418C272.698 721.633 271.684 721.241 270.44 721.241C269.132 721.241 268.068 721.617 267.251 722.369C266.465 723.089 266.073 724.021 266.073 725.167C266.073 726.148 266.334 727.097 266.858 728.013C267.414 728.929 268.33 730.058 269.606 731.399L279.814 741.656L280.697 740.282L284.034 734.687H288.844L284.82 741.656C284.263 742.638 283.609 743.668 282.857 744.748L290.561 752.453H284.721ZM268.477 749.214C270.244 749.214 271.831 748.87 273.238 748.183C274.677 747.496 276.035 746.433 277.311 744.993L267.251 734.884C263.063 736.487 260.969 739.022 260.969 742.49C260.969 744.421 261.656 746.024 263.03 747.3C264.437 748.576 266.253 749.214 268.477 749.214ZM299.29 735.325C299.29 731.988 300.042 728.994 301.547 726.344C303.052 723.662 305.097 721.568 307.682 720.063C310.299 718.558 313.195 717.805 316.368 717.805C320.098 717.805 323.353 718.705 326.134 720.504C328.915 722.304 330.944 724.856 332.22 728.16H326.871C325.922 726.099 324.548 724.512 322.748 723.4C320.981 722.287 318.855 721.731 316.368 721.731C313.98 721.731 311.837 722.287 309.939 723.4C308.042 724.512 306.553 726.099 305.474 728.16C304.394 730.189 303.854 732.577 303.854 735.325C303.854 738.041 304.394 740.429 305.474 742.49C306.553 744.519 308.042 746.089 309.939 747.202C311.837 748.314 313.98 748.87 316.368 748.87C318.855 748.87 320.981 748.33 322.748 747.251C324.548 746.138 325.922 744.551 326.871 742.49H332.22C330.944 745.762 328.915 748.298 326.134 750.097C323.353 751.864 320.098 752.747 316.368 752.747C313.195 752.747 310.299 752.011 307.682 750.539C305.097 749.034 303.052 746.956 301.547 744.306C300.042 741.656 299.29 738.662 299.29 735.325ZM347.161 752.894C344.642 752.894 342.352 752.322 340.291 751.177C338.262 750.032 336.659 748.412 335.481 746.318C334.336 744.192 333.764 741.738 333.764 738.957C333.764 736.209 334.353 733.788 335.53 731.694C336.741 729.567 338.377 727.948 340.438 726.835C342.499 725.69 344.806 725.117 347.358 725.117C349.91 725.117 352.216 725.69 354.277 726.835C356.339 727.948 357.958 729.551 359.136 731.645C360.346 733.738 360.952 736.176 360.952 738.957C360.952 741.738 360.33 744.192 359.087 746.318C357.876 748.412 356.224 750.032 354.13 751.177C352.036 752.322 349.713 752.894 347.161 752.894ZM347.161 748.968C348.765 748.968 350.27 748.592 351.676 747.84C353.083 747.087 354.212 745.958 355.063 744.453C355.946 742.948 356.388 741.116 356.388 738.957C356.388 736.797 355.962 734.965 355.112 733.46C354.261 731.955 353.149 730.843 351.775 730.123C350.4 729.371 348.912 728.994 347.309 728.994C345.673 728.994 344.168 729.371 342.794 730.123C341.452 730.843 340.373 731.955 339.555 733.46C338.737 734.965 338.328 736.797 338.328 738.957C338.328 741.149 338.72 742.997 339.506 744.502C340.324 746.007 341.403 747.136 342.745 747.889C344.086 748.608 345.558 748.968 347.161 748.968ZM372.909 752.894C370.848 752.894 368.999 752.551 367.363 751.864C365.727 751.144 364.435 750.162 363.486 748.919C362.538 747.643 362.014 746.187 361.916 744.551H366.529C366.66 745.893 367.282 746.989 368.394 747.84C369.539 748.69 371.028 749.115 372.86 749.115C374.561 749.115 375.903 748.739 376.884 747.987C377.866 747.234 378.356 746.285 378.356 745.14C378.356 743.963 377.833 743.096 376.786 742.539C375.739 741.95 374.119 741.378 371.927 740.822C369.932 740.298 368.296 739.775 367.02 739.251C365.777 738.695 364.697 737.894 363.781 736.847C362.897 735.767 362.456 734.36 362.456 732.626C362.456 731.252 362.865 729.992 363.683 728.847C364.501 727.702 365.662 726.802 367.167 726.148C368.672 725.461 370.39 725.117 372.32 725.117C375.297 725.117 377.702 725.87 379.534 727.375C381.366 728.88 382.348 730.941 382.479 733.559H378.013C377.915 732.152 377.342 731.023 376.295 730.172C375.281 729.322 373.907 728.896 372.173 728.896C370.57 728.896 369.294 729.24 368.345 729.927C367.396 730.614 366.922 731.514 366.922 732.626C366.922 733.509 367.2 734.246 367.756 734.834C368.345 735.391 369.065 735.849 369.915 736.209C370.799 736.536 372.009 736.912 373.547 737.337C375.477 737.861 377.048 738.384 378.258 738.908C379.469 739.399 380.499 740.151 381.35 741.165C382.233 742.179 382.691 743.505 382.724 745.14C382.724 746.613 382.315 747.938 381.497 749.115C380.679 750.293 379.518 751.226 378.013 751.913C376.54 752.567 374.839 752.894 372.909 752.894ZM417.934 725.068C420.028 725.068 421.893 725.51 423.529 726.393C425.164 727.244 426.457 728.536 427.406 730.27C428.354 732.004 428.829 734.115 428.829 736.601V752.453H424.412V737.239C424.412 734.556 423.741 732.512 422.4 731.105C421.091 729.665 419.308 728.945 417.051 728.945C414.728 728.945 412.879 729.698 411.505 731.203C410.131 732.675 409.444 734.818 409.444 737.632V752.453H405.027V737.239C405.027 734.556 404.356 732.512 403.015 731.105C401.706 729.665 399.923 728.945 397.666 728.945C395.343 728.945 393.494 729.698 392.12 731.203C390.746 732.675 390.059 734.818 390.059 737.632V752.453H385.593V725.559H390.059V729.436C390.942 728.029 392.12 726.95 393.592 726.197C395.097 725.445 396.75 725.068 398.549 725.068C400.806 725.068 402.802 725.576 404.536 726.59C406.27 727.604 407.563 729.093 408.413 731.056C409.166 729.158 410.409 727.686 412.143 726.639C413.877 725.592 415.807 725.068 417.934 725.068ZM457.257 737.975C457.257 738.826 457.208 739.726 457.11 740.674H435.615C435.778 743.325 436.678 745.402 438.314 746.907C439.982 748.379 441.994 749.115 444.35 749.115C446.28 749.115 447.883 748.674 449.159 747.79C450.468 746.874 451.384 745.664 451.908 744.159H456.717C455.997 746.743 454.558 748.854 452.398 750.49C450.239 752.093 447.556 752.894 444.35 752.894C441.798 752.894 439.508 752.322 437.479 751.177C435.484 750.032 433.913 748.412 432.768 746.318C431.623 744.192 431.051 741.738 431.051 738.957C431.051 736.176 431.607 733.738 432.719 731.645C433.831 729.551 435.386 727.948 437.381 726.835C439.41 725.69 441.733 725.117 444.35 725.117C446.902 725.117 449.159 725.674 451.122 726.786C453.086 727.898 454.59 729.436 455.637 731.399C456.717 733.329 457.257 735.522 457.257 737.975ZM452.644 737.043C452.644 735.342 452.268 733.886 451.515 732.675C450.763 731.432 449.732 730.499 448.423 729.878C447.147 729.223 445.724 728.896 444.154 728.896C441.896 728.896 439.966 729.616 438.363 731.056C436.792 732.495 435.893 734.491 435.664 737.043H452.644ZM465.164 729.24V745.091C465.164 746.4 465.442 747.332 465.998 747.889C466.554 748.412 467.52 748.674 468.894 748.674H472.182V752.453H468.157C465.671 752.453 463.806 751.88 462.563 750.735C461.32 749.59 460.698 747.709 460.698 745.091V729.24H457.214V725.559H460.698V718.787H465.164V725.559H472.182V729.24H465.164ZM485.886 752.894C483.367 752.894 481.077 752.322 479.016 751.177C476.987 750.032 475.384 748.412 474.206 746.318C473.061 744.192 472.489 741.738 472.489 738.957C472.489 736.209 473.078 733.788 474.256 731.694C475.466 729.567 477.102 727.948 479.163 726.835C481.224 725.69 483.531 725.117 486.083 725.117C488.635 725.117 490.941 725.69 493.002 726.835C495.064 727.948 496.683 729.551 497.861 731.645C499.071 733.738 499.677 736.176 499.677 738.957C499.677 741.738 499.055 744.192 497.812 746.318C496.601 748.412 494.949 750.032 492.855 751.177C490.761 752.322 488.438 752.894 485.886 752.894ZM485.886 748.968C487.49 748.968 488.995 748.592 490.401 747.84C491.808 747.087 492.937 745.958 493.788 744.453C494.671 742.948 495.113 741.116 495.113 738.957C495.113 736.797 494.687 734.965 493.837 733.46C492.986 731.955 491.874 730.843 490.5 730.123C489.125 729.371 487.637 728.994 486.034 728.994C484.398 728.994 482.893 729.371 481.519 730.123C480.177 730.843 479.098 731.955 478.28 733.46C477.462 734.965 477.053 736.797 477.053 738.957C477.053 741.149 477.445 742.997 478.231 744.502C479.049 746.007 480.128 747.136 481.47 747.889C482.811 748.608 484.283 748.968 485.886 748.968ZM506.579 716.137V752.453H502.113V716.137H506.579ZM522.484 752.894C519.965 752.894 517.675 752.322 515.614 751.177C513.585 750.032 511.982 748.412 510.804 746.318C509.659 744.192 509.087 741.738 509.087 738.957C509.087 736.209 509.676 733.788 510.853 731.694C512.064 729.567 513.7 727.948 515.761 726.835C517.822 725.69 520.129 725.117 522.681 725.117C525.233 725.117 527.539 725.69 529.6 726.835C531.661 727.948 533.281 729.551 534.459 731.645C535.669 733.738 536.275 736.176 536.275 738.957C536.275 741.738 535.653 744.192 534.41 746.318C533.199 748.412 531.547 750.032 529.453 751.177C527.359 752.322 525.036 752.894 522.484 752.894ZM522.484 748.968C524.087 748.968 525.592 748.592 526.999 747.84C528.406 747.087 529.535 745.958 530.385 744.453C531.269 742.948 531.71 741.116 531.71 738.957C531.71 736.797 531.285 734.965 530.435 733.46C529.584 731.955 528.471 730.843 527.097 730.123C525.723 729.371 524.235 728.994 522.631 728.994C520.996 728.994 519.491 729.371 518.117 730.123C516.775 730.843 515.695 731.955 514.878 733.46C514.06 734.965 513.651 736.797 513.651 738.957C513.651 741.149 514.043 742.997 514.828 744.502C515.646 746.007 516.726 747.136 518.067 747.889C519.409 748.608 520.881 748.968 522.484 748.968ZM549.802 725.117C552.125 725.117 554.154 725.625 555.888 726.639C557.654 727.653 558.963 728.929 559.814 730.467V725.559H564.329V753.042C564.329 755.495 563.805 757.671 562.758 759.569C561.711 761.499 560.206 763.004 558.243 764.084C556.313 765.163 554.055 765.703 551.471 765.703C547.937 765.703 544.993 764.869 542.637 763.2C540.281 761.532 538.891 759.258 538.466 756.379H542.883C543.373 758.015 544.387 759.323 545.925 760.305C547.463 761.319 549.311 761.826 551.471 761.826C553.925 761.826 555.92 761.057 557.458 759.52C559.028 757.982 559.814 755.822 559.814 753.042V747.398C558.93 748.968 557.622 750.277 555.888 751.324C554.154 752.371 552.125 752.894 549.802 752.894C547.414 752.894 545.238 752.305 543.275 751.128C541.345 749.95 539.823 748.298 538.711 746.171C537.599 744.044 537.043 741.623 537.043 738.908C537.043 736.16 537.599 733.755 538.711 731.694C539.823 729.6 541.345 727.98 543.275 726.835C545.238 725.69 547.414 725.117 549.802 725.117ZM559.814 738.957C559.814 736.928 559.405 735.162 558.587 733.657C557.769 732.152 556.656 731.007 555.25 730.221C553.875 729.403 552.354 728.994 550.686 728.994C549.017 728.994 547.496 729.387 546.122 730.172C544.747 730.957 543.651 732.103 542.833 733.608C542.016 735.113 541.607 736.879 541.607 738.908C541.607 740.969 542.016 742.768 542.833 744.306C543.651 745.811 544.747 746.973 546.122 747.79C547.496 748.576 549.017 748.968 550.686 748.968C552.354 748.968 553.875 748.576 555.25 747.79C556.656 746.973 557.769 745.811 558.587 744.306C559.405 742.768 559.814 740.985 559.814 738.957ZM591.604 725.559L575.409 765.114H570.796L576.096 752.158L565.25 725.559H570.207L578.648 747.349L586.991 725.559H591.604Z" fill="#0F1F41"/>
<defs>
<linearGradient id="paint0_linear_159_135" x1="349.163" y1="85.7207" x2="349.163" y2="612.726" gradientUnits="userSpaceOnUse">
<stop stop-color="#0F1F41"/>
<stop offset="1" stop-color="#95754E"/>
</linearGradient>
<linearGradient id="paint1_linear_159_135" x1="427.229" y1="189.008" x2="427.229" y2="511.208" gradientUnits="userSpaceOnUse">
<stop stop-color="#0F1F41"/>
<stop offset="1" stop-color="#95754E"/>
</linearGradient>
<linearGradient id="paint2_linear_159_135" x1="314.976" y1="202.533" x2="314.976" y2="303.984" gradientUnits="userSpaceOnUse">
<stop stop-color="#0F1F41"/>
<stop offset="1" stop-color="#95754E"/>
</linearGradient>
<linearGradient id="paint3_linear_159_135" x1="336.319" y1="251.097" x2="336.319" y2="494.79" gradientUnits="userSpaceOnUse">
<stop stop-color="#0F1F41"/>
<stop offset="1" stop-color="#95754E"/>
</linearGradient>
<linearGradient id="paint4_linear_159_135" x1="378.906" y1="267.502" x2="378.906" y2="402.047" gradientUnits="userSpaceOnUse">
<stop stop-color="#0F1F41"/>
<stop offset="1" stop-color="#95754E"/>
</linearGradient>
<linearGradient id="paint5_linear_159_135" x1="349.163" y1="85.7207" x2="349.163" y2="612.726" gradientUnits="userSpaceOnUse">
<stop stop-color="#0F1F41"/>
<stop offset="1" stop-color="#95754E"/>
</linearGradient>
<linearGradient id="paint6_linear_159_135" x1="349.805" y1="189.868" x2="349.805" y2="577.452" gradientUnits="userSpaceOnUse">
<stop stop-color="#0F1F41"/>
<stop offset="1" stop-color="#95754E"/>
</linearGradient>
</defs>
</svg>
